<?xml version="1.0" encoding="utf-8"?>
<!-- Generator: Adobe Illustrator 15.0.0, SVG Export Plug-In . SVG Version: 6.00 Build 0)  -->
<!DOCTYPE svg PUBLIC "-//W3C//DTD SVG 1.1//EN" "http://www.w3.org/Graphics/SVG/1.1/DTD/svg11.dtd">
<svg version="1.1" id="Layer_1" xmlns="http://www.w3.org/2000/svg" xmlns:xlink="http://www.w3.org/1999/xlink" x="0px" y="0px"
	 width="290px" height="210px" viewBox="0 0 290 210" enable-background="new 0 0 290 210" xml:space="preserve">
<g>
	<g>
		<g>
			<g>
				<path fill="#E8E8E8" d="M84.426,151.872c0,0-22.55,4.548-19.176,12.913c4.22,10.466,34.938,33.552,50.287,39.526
					c10.851,4.22,10.957,3.717,21.524,1.564C140.222,205.231,84.426,151.872,84.426,151.872z"/>
			</g>
			<g>
				<g>
					<path fill="#DDE6EB" d="M136.915,128.096c0,0,6.015,19.666,20.25,26.416c0,0,0.294,1.027,3.668-0.147l52.83-15.554l0.733-5.578
						l-52.536,14.529c0,0-15.848-7.34-24.799-28.472L136.915,128.096z"/>
				</g>
				<g>
					<polygon fill="#EBF0F4" points="79.145,81.19 135.899,113.519 216.772,94.921 156.247,64.601 					"/>
				</g>
				<g>
					<path fill="#F1F2F4" d="M80.724,129.672l3.812,35.403l5.479,9.393l46.283,29.16l-0.533-89.159c0,0-4.856,19.104-25.167,32.773
						C109.975,147.664,80.724,129.672,80.724,129.672z"/>
				</g>
				<g>
					<path fill="#C7D8E0" d="M124.99,106.963c0,0,22.662,5.524,29.938-10.566c0,0,9.049,7.729,36.832,3.815l-55.239,13.797
						L124.99,106.963z"/>
				</g>
				<g>
					<path fill="#F1F2F4" d="M144.019,129.465l80.223-21.915l8.168,8.854l-80.956,22.453
						C151.454,138.856,143.433,132.107,144.019,129.465z"/>
				</g>
				<g>
					<path fill="#F1F2F4" d="M70.937,96.983l56.744,32.871c0,0-2.74,8.608-8.61,9.394L61.545,104.81L70.937,96.983z"/>
				</g>
				<g>
					<path fill="#DDE6EB" d="M81.992,130.149l1.175,7.63l24.067,14.675c0,0,1.663,0.978,3.522,0.293c0,0,19.665-9.292,24.948-27.589
						v-5.869c0,0-14.676,24.36-25.242,26.122L81.992,130.149z"/>
				</g>
				<g>
					<g>
						<g>
							<path fill="#3987C7" d="M135.505,114.497c-0.199,0-0.396-0.052-0.573-0.15L77.405,82.062c-0.424-0.239-0.658-0.716-0.585-1.2
								c0.071-0.481,0.435-0.869,0.91-0.973l77.484-16.828c0.258-0.057,0.529-0.023,0.766,0.093l62.417,30.523
								c0.447,0.219,0.708,0.697,0.65,1.192c-0.057,0.494-0.422,0.899-0.909,1.008l-82.374,18.59
								C135.681,114.486,135.594,114.497,135.505,114.497z M81.252,81.528l54.436,30.55l78.68-17.756l-59.054-28.879L81.252,81.528z
								"/>
						</g>
					</g>
					<g>
						<g>
							<path fill="#3987C7" d="M136.093,206.07c-0.226,0-0.45-0.065-0.643-0.191c-1.826-1.195-44.77-29.277-48.539-33.243
								c-2.172-2.289-2.639-5.207-2.657-5.327c-0.004-0.023-0.006-0.045-0.008-0.067l-3.523-37.569l2.339-0.218l3.517,37.523
								c0.046,0.25,0.476,2.399,2.034,4.041c2.839,2.988,32.172,22.464,47.684,32.609l70.568-18.81
								c0.247-0.157,1.026-0.732,1.255-1.874c1.213-6.06,5.462-37.021,5.848-52.044l2.349,0.064
								c-0.39,15.135-4.672,46.333-5.894,52.441c-0.498,2.49-2.5,3.519-2.583,3.56c-0.071,0.034-0.146,0.063-0.224,0.084
								l-71.221,18.979C136.296,206.055,136.194,206.07,136.093,206.07z"/>
						</g>
					</g>
					<g>
						<g>
							<path fill="#3987C7" d="M137.072,204.896h-2.348v-82.891c-6.7,16.281-23.313,24.828-24.127,25.237
								c-0.358,0.181-0.787,0.166-1.132-0.041c-46.091-27.693-57.135-35.993-57.241-36.074c-0.308-0.233-0.482-0.604-0.463-0.99
								c0.019-0.388,0.227-0.74,0.556-0.943c22.253-13.767,24.48-28.17,24.499-28.313l2.329,0.309
								c-0.081,0.616-2.201,14.948-24.11,29.064c4.103,2.883,18.257,12.464,55.066,34.591c3.454-1.92,21.733-12.895,24.637-31.507
								c0.094-0.605,0.648-1.033,1.251-0.989c0.611,0.047,1.083,0.557,1.083,1.17V204.896z"/>
						</g>
					</g>
					<g>
						<g>
							<path fill="#3987C7" d="M161.921,147.369c-0.204,0-0.405-0.054-0.585-0.157c-23.311-13.433-26.475-32.703-26.598-33.518
								l2.321-0.353c0.043,0.275,3.182,18.786,25.019,31.589l77.824-22.211c-5.626-2.686-17.03-10.095-23.13-27.798l2.22-0.765
								c7.734,22.449,24.679,27.577,24.849,27.626c0.504,0.146,0.849,0.607,0.848,1.13c-0.001,0.523-0.348,0.982-0.852,1.127
								l-81.594,23.285C162.138,147.355,162.03,147.369,161.921,147.369z M135.899,113.519l1.16-0.178c0,0.001,0,0.001,0,0.001
								L135.899,113.519z"/>
						</g>
					</g>
					<g>
						<g>
							<path fill="#3D4751" d="M169.317,182.504l-2.269-0.612c0.163-0.596,4.068-14.564,14.243-14.564
								c7.286,0,11.438,7.932,11.611,8.268l-2.089,1.071c-0.035-0.066-3.678-6.99-9.522-6.99
								C172.893,169.676,169.352,182.376,169.317,182.504z"/>
						</g>
					</g>
					<g>
						<g>
							<circle fill="#3D4751" cx="167.008" cy="163.217" r="2.936"/>
						</g>
					</g>
					<g>
						<g>
							<circle fill="#3D4751" cx="189.119" cy="158.325" r="2.935"/>
						</g>
					</g>
					<g>
						<g>
							<rect x="153.9" y="64.601" fill="#3987C7" width="2.347" height="44.222"/>
						</g>
					</g>
					<g>
						<g>
							<path fill="#3D4751" d="M168.206,180.925c-0.646,0-1.174,0.526-1.174,1.173c0,0.65,0.527,1.175,1.174,1.175
								c0.649,0,1.174-0.524,1.174-1.175C169.38,181.451,168.855,180.925,168.206,180.925L168.206,180.925z"/>
						</g>
					</g>
					<g>
						<g>
							<path fill="#3D4751" d="M191.859,174.958c-0.649,0-1.176,0.524-1.176,1.174c0,0.647,0.526,1.174,1.176,1.174
								c0.646,0,1.173-0.526,1.173-1.174C193.032,175.482,192.506,174.958,191.859,174.958L191.859,174.958z"/>
						</g>
					</g>
				</g>
				<g>
					<path fill="#F1F2F4" d="M110.598,147.242"/>
				</g>
			</g>
		</g>
		<g>
			<polygon fill="#FFFFFF" points="180.713,86.218 191.964,78.281 186.29,74.185 			"/>
		</g>
		<g>
			<polygon fill="#FFFFFF" points="122.6,67.727 139.037,92.291 138.743,63.912 			"/>
		</g>
		<g>
			<path fill="none" d="M134.383,33.238c-2.057-4.628-6.694-7.866-12.075-7.866c-7.284,0-13.209,5.925-13.209,13.208
				c0,0.668,0.053,1.326,0.148,1.968c0.498-0.065,1.001-0.11,1.516-0.11c6.33,0,11.47,5.055,11.626,11.346
				c2.348-0.014,4.551-0.646,6.459-1.738c-1.101-1.77-1.749-3.85-1.749-6.087C127.101,39.092,130.119,34.936,134.383,33.238z"/>
		</g>
		<g>
			<path fill="none" d="M110.763,42.786c-0.324,0-0.642,0.017-0.957,0.05c1.539,4.503,5.443,7.917,10.225,8.751
				C119.773,46.693,115.722,42.786,110.763,42.786z"/>
		</g>
		<g>
			<path fill="none" d="M135.515,38.581c0-1.075-0.133-2.118-0.375-3.119c-3.337,1.382-5.69,4.669-5.69,8.499
				c0,1.735,0.491,3.355,1.33,4.741C133.672,46.276,135.515,42.641,135.515,38.581z"/>
		</g>
		<g>
			<path fill="none" d="M107.512,43.386c-3.524,1.322-6.044,4.715-6.044,8.694c0,5.126,4.17,9.295,9.295,9.295
				c4.486,0,8.24-3.197,9.105-7.432C114.042,53.026,109.292,48.875,107.512,43.386z"/>
		</g>
		<g>
			<path fill="none" d="M132.242,50.548c1.656,1.611,3.914,2.609,6.404,2.609c5.07,0,9.196-4.125,9.196-9.196
				c0-5.071-4.125-9.197-9.196-9.197c-0.421,0-0.831,0.038-1.235,0.093c0.293,1.192,0.452,2.439,0.452,3.724
				C137.862,43.393,135.677,47.695,132.242,50.548z"/>
		</g>
		<g>
			<path fill="#F1F2F4" d="M124.68,25.152c0,0-9.156,0.802-8.438,9.833c0.514,6.457,5.576,7.704,5.576,7.704
				s-5.775,4.501-12.206-0.244c0,0-4.083-9.442,5.089-16.045C123.873,19.796,124.239,25.006,124.68,25.152z"/>
		</g>
		<g>
			<path fill="#F1F2F4" d="M117.049,51.715c0,0-0.018-0.017-0.047-0.042c-0.626,3.438-3.797,6.059-7.621,6.059
				c-4.274,0-7.741-3.269-7.741-7.301c0-2.37,1.201-4.469,3.056-5.802c-4.525,0.367-6.633,8.481-3.57,12.811
				c3.375,4.769,6.898,5.429,13.281,2.714C120.791,57.438,117.049,51.715,117.049,51.715z"/>
		</g>
		<g>
			<polygon fill="#F1F2F4" points="133.313,53.94 137.814,71.159 137.814,55.083 			"/>
		</g>
		<g>
			<path fill="#F1F2F4" d="M147.134,46.505c0,0-0.662-6.75-6.458-7.337c-5.797-0.587-6.384,0.734-6.384,0.734
				s-0.091-1.956,0.651-4.83c0.743-2.875,9.328-0.307,11.162,2.188S148.527,45.917,147.134,46.505z"/>
		</g>
		<g>
			<path fill="#DDE2E5" d="M138.45,32.025c-0.675,0-1.333,0.07-1.977,0.181c-2.345-5.621-7.892-9.573-14.362-9.573
				c-8.59,0-15.555,6.963-15.555,15.556c0,0.854,0.072,1.691,0.204,2.508c-4.558,1.579-7.836,5.898-7.836,10.992
				c0,6.43,5.213,11.643,11.643,11.643c2.417,0,4.654-0.743,6.513-2.004l20.99,30.455c0.224,0.324,0.588,0.508,0.967,0.508
				c0.117,0,0.233-0.017,0.35-0.054c0.491-0.152,0.825-0.607,0.825-1.121V54.965c5.537-0.849,9.784-5.62,9.784-11.395
				C149.995,37.193,144.826,32.025,138.45,32.025z M140.211,52.593c-0.57,0.11-1.159,0.173-1.762,0.173
				c-0.198,0-0.392-0.017-0.587-0.028c-2.254-0.145-4.29-1.098-5.816-2.58c-0.564-0.547-1.053-1.17-1.461-1.846
				c-0.6,0.503-1.248,0.953-1.932,1.345c0.421,0.676,0.907,1.305,1.454,1.878c1.975,2.069,4.709,3.395,7.756,3.549v32.262
				l-18.975-27.527l-1.363-1.978c-0.523,0.591-1.121,1.115-1.777,1.559c-1.481,0.998-3.262,1.587-5.181,1.587
				c-5.125,0-9.294-4.17-9.294-9.295c0-3.98,2.52-7.374,6.044-8.695c0.727-0.274,1.494-0.467,2.295-0.549
				c-0.252-0.737-0.441-1.5-0.56-2.287c-0.097-0.644-0.148-1.3-0.148-1.969c0-7.283,5.926-13.208,13.208-13.208
				c5.383,0,10.021,3.238,12.077,7.866c0.314,0.712,0.569,1.453,0.756,2.224c0.716-0.296,1.478-0.498,2.272-0.605
				c0.404-0.055,0.814-0.093,1.233-0.093c5.071,0,9.197,4.125,9.197,9.196C147.646,48.038,144.442,51.769,140.211,52.593z"/>
		</g>
		<g>
			<path fill="#F1F2F4" d="M214.106,52.256c0,0-4.103-5.125-9.184-1.122c-3.634,2.862-2.37,6.364-2.37,6.364s-4.964-1.65-4.688-7.35
				c0,0,3.993-6.166,11.55-3.329C216.971,49.654,214.021,51.936,214.106,52.256z"/>
		</g>
		<g>
			<path fill="#F1F2F4" d="M195.3,58.239c0,0,0.002-0.017,0.007-0.044c-2.294,0.99-5.104,0.143-6.619-2.131
				c-1.694-2.541-1.122-5.894,1.273-7.492c1.407-0.938,3.132-1.054,4.659-0.481c-2.011-2.544-7.667-0.583-9.028,2.951
				c-1.497,3.894-0.495,6.249,3.646,8.969C193.381,62.729,195.3,58.239,195.3,58.239z"/>
		</g>
		<g>
			<polygon fill="#F1F2F4" points="200.417,68.787 191.964,78.281 201.52,71.913 			"/>
		</g>
		<g>
			<path fill="#F1F2F4" d="M210.308,74.055c0,0,3.75-3.065,1.805-6.743c-1.946-3.677-2.964-3.503-2.964-3.503
				s1.126-0.828,3.129-1.526c2.001-0.698,3.876,5.422,3.119,7.5C214.64,71.862,211.21,74.651,210.308,74.055z"/>
		</g>
		<g>
			<path fill="#DDE2E5" d="M215.476,63.161c-0.268-0.401-0.568-0.766-0.891-1.104c2.414-3.619,2.565-8.48,0.003-12.324
				c-3.403-5.107-10.299-6.488-15.405-3.086c-0.509,0.338-0.977,0.712-1.411,1.114c-2.742-2.084-6.606-2.322-9.635-0.304
				c-3.821,2.545-4.854,7.708-2.309,11.528c0.955,1.437,2.282,2.472,3.769,3.078l-9.786,24.535c-0.105,0.261-0.071,0.551,0.08,0.776
				c0.044,0.068,0.103,0.133,0.171,0.187c0.283,0.232,0.687,0.25,0.991,0.047l21.486-14.316c2.698,2.956,7.215,3.589,10.646,1.301
				C216.975,72.069,218,66.95,215.476,63.161z M203.95,72.352c-0.292-0.294-0.563-0.62-0.802-0.978
				c-0.076-0.118-0.146-0.24-0.214-0.362c-0.809-1.396-1.049-2.983-0.771-4.478c0.103-0.552,0.278-1.087,0.518-1.6
				c-0.537-0.157-1.061-0.363-1.564-0.614c-0.235,0.517-0.415,1.053-0.542,1.607c-0.447,1.993-0.149,4.143,0.964,6.014
				l-19.174,12.776l8.846-22.178l0.636-1.593c-0.559-0.077-1.104-0.225-1.629-0.44c-1.182-0.483-2.235-1.311-2.996-2.451
				c-2.028-3.046-1.201-7.174,1.845-9.203c2.364-1.577,5.381-1.423,7.563,0.147c0.45,0.324,0.868,0.705,1.235,1.147
				c0.336-0.442,0.716-0.857,1.136-1.239c0.344-0.312,0.714-0.603,1.111-0.868c4.327-2.883,10.196-1.709,13.081,2.619
				c2.132,3.199,2.043,7.239,0.105,10.292c-0.297,0.468-0.638,0.915-1.021,1.33c0.46,0.309,0.883,0.683,1.26,1.111
				c0.19,0.219,0.376,0.447,0.542,0.696c2.01,3.015,1.19,7.1-1.824,9.109C209.6,74.967,206.114,74.54,203.95,72.352z"/>
			<path fill="#DDE2E5" d="M180.588,88.042c-0.259,0-0.512-0.09-0.712-0.254c-0.089-0.069-0.168-0.155-0.229-0.251
				c-0.206-0.308-0.247-0.7-0.108-1.046l9.681-24.27c-1.481-0.664-2.735-1.72-3.636-3.071c-1.274-1.914-1.727-4.209-1.276-6.464
				c0.452-2.254,1.754-4.198,3.667-5.472c1.416-0.943,3.061-1.443,4.756-1.443c1.793,0,3.568,0.572,5.022,1.612
				c0.406-0.36,0.832-0.689,1.269-0.979c1.879-1.252,4.063-1.916,6.312-1.916c3.829,0,7.381,1.901,9.5,5.082
				c2.518,3.779,2.56,8.643,0.124,12.457c0.293,0.324,0.544,0.644,0.764,0.974c1.264,1.896,1.714,4.174,1.267,6.409
				c-0.448,2.236-1.738,4.165-3.638,5.429c-1.406,0.936-3.036,1.431-4.716,1.431c0,0,0,0-0.001,0c-2.312,0-4.534-0.943-6.137-2.595
				l-21.28,14.179C181.029,87.977,180.813,88.042,180.588,88.042z M192.729,46.358c-1.58,0-3.11,0.465-4.43,1.343
				c-1.783,1.189-2.997,2.999-3.417,5.1c-0.421,2.101,0.002,4.241,1.189,6.023c0.889,1.334,2.147,2.36,3.637,2.967l0.27,0.11
				l-9.896,24.807c-0.066,0.167-0.047,0.355,0.052,0.503c0.03,0.045,0.066,0.085,0.11,0.119c0.183,0.15,0.45,0.163,0.645,0.033
				l21.697-14.456l0.169,0.187c1.5,1.644,3.642,2.587,5.877,2.587l0,0c1.563,0,3.082-0.462,4.39-1.332
				c1.768-1.178,2.97-2.974,3.388-5.057c0.418-2.082-0.001-4.202-1.18-5.969c-0.239-0.36-0.52-0.708-0.857-1.065l-0.161-0.169
				l0.129-0.196c2.431-3.645,2.432-8.354,0.002-11.999c-2.011-3.019-5.38-4.821-9.011-4.821c-2.134,0-4.203,0.628-5.986,1.817
				c-0.477,0.317-0.939,0.682-1.375,1.085l-0.18,0.167l-0.197-0.149C196.206,46.94,194.478,46.358,192.729,46.358z M181.744,85.485
				l9.696-24.308c-0.456-0.088-0.902-0.221-1.335-0.398c-1.28-0.526-2.361-1.409-3.126-2.558c-2.12-3.182-1.257-7.494,1.925-9.613
				c1.136-0.758,2.459-1.157,3.823-1.157c1.451,0,2.896,0.465,4.072,1.312c0.39,0.28,0.741,0.591,1.054,0.926
				c0.296-0.358,0.613-0.694,0.949-0.997c0.357-0.324,0.743-0.625,1.146-0.894c1.601-1.065,3.46-1.629,5.379-1.629
				c3.271,0,6.302,1.619,8.107,4.328c2.13,3.196,2.174,7.361,0.11,10.612c-0.251,0.396-0.53,0.773-0.832,1.123
				c0.373,0.281,0.724,0.604,1.042,0.967c0.233,0.264,0.412,0.496,0.567,0.728c2.098,3.148,1.245,7.417-1.904,9.515
				c-1.128,0.751-2.438,1.148-3.79,1.148c-1.829,0-3.609-0.741-4.888-2.033c-0.318-0.322-0.6-0.666-0.837-1.021
				c-0.071-0.11-0.136-0.221-0.199-0.334c-0.841-1.455-1.128-3.115-0.83-4.721c0.086-0.461,0.223-0.919,0.405-1.365
				c-0.342-0.113-0.682-0.247-1.014-0.4c-0.17,0.414-0.308,0.842-0.403,1.274c-0.444,1.985-0.116,4.046,0.93,5.801l0.142,0.24
				L181.744,85.485z M192.728,48.038c-1.249,0-2.458,0.366-3.499,1.059c-2.91,1.94-3.7,5.887-1.762,8.798
				c0.701,1.051,1.689,1.861,2.862,2.341c0.501,0.206,1.025,0.349,1.559,0.422l0.371,0.051l-9.271,23.243l18.162-12.1
				c-1.013-1.831-1.316-3.947-0.859-5.989c0.13-0.568,0.316-1.128,0.56-1.664l0.127-0.277l0.271,0.136
				c0.493,0.246,1.002,0.444,1.516,0.595l0.33,0.096l-0.146,0.31c-0.232,0.494-0.398,1.009-0.495,1.53
				c-0.272,1.468-0.011,2.986,0.736,4.276c0.084,0.147,0.14,0.248,0.206,0.347c0.214,0.324,0.472,0.638,0.764,0.933
				c1.167,1.181,2.798,1.858,4.47,1.858c1.235,0,2.433-0.363,3.464-1.05c2.88-1.917,3.662-5.821,1.743-8.7
				c-0.141-0.211-0.306-0.422-0.519-0.665c-0.363-0.413-0.769-0.77-1.203-1.063l-0.283-0.19l0.231-0.251
				c0.362-0.396,0.696-0.829,0.987-1.29c1.939-3.055,1.898-6.969-0.102-9.971c-1.698-2.548-4.546-4.068-7.62-4.068
				c-1.804,0-3.55,0.53-5.054,1.53c-0.379,0.254-0.742,0.536-1.077,0.842c-0.396,0.358-0.766,0.761-1.1,1.199l-0.225,0.292
				l-0.236-0.284c-0.331-0.401-0.729-0.771-1.181-1.095C195.382,48.464,194.057,48.038,192.728,48.038z"/>
		</g>
		<g>
			<polygon fill="#DCE9EF" points="123.774,2.5 124.573,4.119 126.36,4.379 125.068,5.639 125.373,7.417 123.774,6.577 
				122.178,7.417 122.482,5.639 121.189,4.379 122.976,4.119 			"/>
		</g>
		<g>
			<polygon fill="#DEE9ED" points="30.587,92.884 31.16,94.042 32.439,94.228 31.515,95.131 31.732,96.405 30.587,95.804 
				29.443,96.405 29.662,95.131 28.736,94.228 30.016,94.042 			"/>
		</g>
		<g>
			<polygon fill="#DEE8EA" points="230.196,78.978 230.996,80.596 232.782,80.856 231.488,82.117 231.794,83.896 230.196,83.055 
				228.599,83.896 228.903,82.117 227.612,80.856 229.398,80.596 			"/>
		</g>
		<g>
			<polygon fill="#DEE9EF" points="56.728,52.321 54.838,49.049 56.728,45.775 60.507,45.775 62.396,49.049 60.507,52.321 			"/>
		</g>
		<g>
			<polygon fill="#DEE9EF" points="223.616,46.079 221.51,44.862 221.51,42.43 223.616,41.215 225.722,42.43 225.722,44.862 			"/>
		</g>
		<g>
			<polygon fill="#DEE9EF" points="169.918,22.707 168.138,21.68 168.138,19.625 169.918,18.598 171.696,19.625 171.696,21.68 			
				"/>
		</g>
		<g>
			<polygon fill="#DDE8EE" points="31.444,112.376 30.613,109.819 32.789,108.238 34.965,109.819 34.134,112.376 			"/>
		</g>
		<g>
			<polygon fill="#DDE8EC" points="268.273,131.395 270.104,128.241 273.671,129.008 274.043,132.634 270.706,134.109 			"/>
		</g>
	</g>
	<g>
		<g>
			<path fill="#F1F2F4" d="M62.521,167.407l-39.477,9.394l-1.125,6.065l22.893-5.479c0,0,7.043,4.697,11.543,3.523
				C60.858,179.736,65.847,169.366,62.521,167.407z"/>
		</g>
		<g>
			<path fill="#E8E8E8" d="M4.799,187.758c0,0,0.147,7.34,7.485,7.486h8.071c0,0,5.577-0.881,4.256-5.432l-11.447,2.202
				L4.799,187.758z"/>
		</g>
		<g>
			<g>
				<g>
					<g>
						<path fill="#C4CBD1" d="M57.545,151.602c3.245,7.447,8.092,22.986,0.851,27.736c-1.313,0.862-2.644,1.279-4.067,1.279
							c-4.127,0-7.572-3.6-7.601-3.631l-0.965-1.037l-1.369,0.372l-21.563,5.851c1.306-4.689,2.127-12.525-2.326-21.744
							L57.545,151.602 M58.876,148.87l-41.874,9.979c8.805,15.064,1.958,26.807,1.958,26.807l26.048-7.071
							c0,0,4.073,4.381,9.32,4.381c1.696,0,3.514-0.456,5.355-1.665C70.983,173.891,58.876,148.87,58.876,148.87L58.876,148.87z"/>
					</g>
				</g>
				<g>
					<g>
						<path fill="#C4CBD1" d="M13.813,194.094c-0.454,0-5.008-0.126-8.233-5.001l-0.862-1.304l17.757-5.542l0.699,2.242
							L8.52,189.062c2.169,2.379,4.599,2.648,5.162,2.681l41.441-11.109l0.608,2.267l-41.743,11.191l-0.145,0.003
							C13.838,194.094,13.827,194.094,13.813,194.094z"/>
					</g>
				</g>
			</g>
			<g>
				<path fill="#65BE64" d="M28.084,174.509v0.263l21.517-5.276l-0.281-1.141l-21.236,5.232
					C28.088,173.891,28.088,174.2,28.084,174.509z"/>
			</g>
			<g>
				<path fill="#3C88C6" d="M27.881,170.365c-0.023-0.186-0.048-0.372-0.075-0.557l-0.053,0.014L27.881,170.365z"/>
			</g>
			<g>
				<path fill="#65BE64" d="M26.066,162.904c0.105,0.281,0.242,0.658,0.392,1.114l28.978-7.166
					c-0.193-0.472-0.354-0.841-0.468-1.096L26.066,162.904z"/>
			</g>
			<g>
				<path fill="#65BE64" d="M27.068,166.106c0.093,0.361,0.185,0.74,0.273,1.142l29.337-6.97c-0.124-0.392-0.248-0.765-0.372-1.119
					L27.068,166.106z"/>
			</g>
			<g>
				<path fill="#65BE64" d="M27.807,169.809c0.026,0.185,0.052,0.371,0.075,0.557l0.141,0.6l29.638-6.97
					c-0.082-0.391-0.168-0.771-0.259-1.146L27.807,169.809z"/>
			</g>
			<g>
				<path fill="#65BE64" d="M27.918,177.26c-0.052,0.417-0.118,0.838-0.194,1.261l30.417-7.618c0.044-0.409,0.074-0.818,0.087-1.231
					L27.918,177.26z"/>
			</g>
		</g>
	</g>
	<g>
		<g>
			<g>
				<path fill="#E7E7E7" d="M238.478,182.146c0,0-7.534,2.64-4.012,5.722c0,0,16.729,12.769,28.176,11.447l-13.794-8.657
					L238.478,182.146z"/>
			</g>
			<g>
				<polygon fill="#F0F1F5" points="261.174,164.095 240.63,183.023 248.848,190.657 270.42,172.02 				"/>
			</g>
			<g>
				<path fill="#C3CAD0" d="M264.402,199.902c-0.113,0-0.23-0.019-0.345-0.053c-29.067-8.944-30.428-28.695-30.471-29.528
					c-0.018-0.344,0.113-0.675,0.36-0.911l20.692-19.814c0.288-0.277,0.703-0.388,1.092-0.29c0.394,0.097,0.706,0.388,0.835,0.768
					c8.165,24.501,28.687,26.043,28.895,26.057c0.458,0.029,0.857,0.321,1.022,0.752c0.166,0.427,0.065,0.912-0.256,1.243
					l-20.985,21.424C265.018,199.776,264.713,199.902,264.402,199.902z M235.98,170.714c0.385,3.111,3.518,18.85,28.088,26.68
					l18.886-19.285c-5.797-1.185-20.767-6.084-28.006-25.555L235.98,170.714z"/>
			</g>
		</g>
		<g>
			<path fill="none" d="M256.553,162.884l-15.14,14.026c0.822,1.637,2.006,3.503,3.694,5.374l15.085-13.636l0.787,0.871
				l-15.065,13.617c0.596,0.602,1.248,1.202,1.961,1.793l15.11-13.852C260.192,168.426,258.042,165.369,256.553,162.884z
				 M243.952,180.09l-0.777-0.882l12.328-10.858l0.776,0.881L243.952,180.09z"/>
		</g>
		<g>
			<path fill="none" d="M254.749,159.581l-14.788,13.649c0.195,0.687,0.492,1.563,0.93,2.565l15.056-13.95
				C255.451,160.967,255.049,160.194,254.749,159.581z"/>
		</g>
		<g>
			<path fill="#5EBF58" d="M254.749,159.581c-0.235-0.482-0.409-0.857-0.524-1.113l-14.579,13.454
				c0.051,0.265,0.146,0.714,0.315,1.309L254.749,159.581z"/>
		</g>
		<g>
			<path fill="#5EBF58" d="M255.946,161.846l-15.056,13.95c0.155,0.357,0.329,0.729,0.522,1.114l15.14-14.026
				C256.336,162.524,256.135,162.179,255.946,161.846z"/>
		</g>
		<g>
			
				<rect x="249.139" y="166.005" transform="matrix(-0.6613 -0.7502 0.7502 -0.6613 284.1716 476.7577)" fill="#5EBF58" width="1.176" height="16.428"/>
		</g>
		<g>
			<path fill="#5EBF58" d="M260.192,168.648l-15.085,13.636c0.256,0.283,0.527,0.567,0.807,0.853l15.065-13.617L260.192,168.648z"/>
		</g>
		<g>
			<path fill="#5EBF58" d="M247.875,184.93c0.3,0.247,0.608,0.492,0.931,0.738l15.05-13.795c-0.297-0.261-0.588-0.524-0.87-0.795
				L247.875,184.93z"/>
		</g>
	</g>
</g>
</svg>
