<?xml version="1.0" encoding="utf-8"?>
<!-- Generator: Adobe Illustrator 15.0.0, SVG Export Plug-In . SVG Version: 6.00 Build 0)  -->
<!DOCTYPE svg PUBLIC "-//W3C//DTD SVG 1.1//EN" "http://www.w3.org/Graphics/SVG/1.1/DTD/svg11.dtd">
<svg version="1.1" id="Layer_1" xmlns="http://www.w3.org/2000/svg" xmlns:xlink="http://www.w3.org/1999/xlink" x="0px" y="0px"
	 width="43.943px" height="52px" viewBox="0 0 43.943 52" enable-background="new 0 0 43.943 52" xml:space="preserve">
<g>
	<path fill="#A4C639" d="M3.253,16.271C1.456,16.271,0,17.544,0,19.118v12.175c0,1.572,1.457,2.849,3.253,2.849
		c1.795,0,3.253-1.275,3.253-2.849V19.118C6.507,17.545,5.049,16.271,3.253,16.271z M27.861,4.364l2.844-2.835
		c0.352-0.351,0.352-0.915,0-1.267c-0.353-0.35-0.918-0.35-1.271,0l-3.499,3.493C24.684,3.45,23.364,3.28,21.99,3.28
		c-1.356,0-2.666,0.168-3.902,0.466l-3.493-3.483c-0.353-0.35-0.919-0.35-1.271,0c-0.351,0.351-0.351,0.917,0,1.268l2.829,2.819
		c-4.72,1.811-7.999,5.734-7.999,10.295c0,0.056,27.668,0.003,27.668,0C35.824,10.095,32.563,6.181,27.861,4.364z M17.921,11.396
		c-0.9,0-1.627-0.726-1.627-1.625c0-0.896,0.727-1.625,1.627-1.625c0.899,0,1.627,0.729,1.627,1.625
		C19.55,10.669,18.816,11.396,17.921,11.396z M26.059,11.396c-0.899,0-1.628-0.726-1.628-1.625c0-0.896,0.729-1.625,1.628-1.625
		s1.628,0.729,1.628,1.625C27.687,10.669,26.958,11.396,26.059,11.396z M40.691,16.271c-1.797,0-3.256,1.272-3.256,2.847v12.175
		c0,1.572,1.459,2.849,3.256,2.849c1.796,0,3.251-1.276,3.251-2.849V19.118C43.942,17.545,42.484,16.271,40.691,16.271z
		 M8.155,35.751c0,2.686,2.179,4.86,4.866,4.869v8.532c0,1.572,1.457,2.848,3.253,2.848c1.795,0,3.251-1.274,3.251-2.848V40.62
		h4.891v8.532c0,1.572,1.456,2.848,3.253,2.848c1.795,0,3.252-1.274,3.252-2.848V40.62h0.021c2.697,0,4.883-2.181,4.883-4.869
		V16.266H8.158v19.485H8.155L8.155,35.751z"/>
</g>
</svg>
