<?xml version="1.0" encoding="utf-8"?>
<!-- Generator: Adobe Illustrator 15.0.0, SVG Export Plug-In . SVG Version: 6.00 Build 0)  -->
<!DOCTYPE svg PUBLIC "-//W3C//DTD SVG 1.1//EN" "http://www.w3.org/Graphics/SVG/1.1/DTD/svg11.dtd">
<svg version="1.1" id="Capa_1" xmlns="http://www.w3.org/2000/svg" xmlns:xlink="http://www.w3.org/1999/xlink" x="0px" y="0px"
	 width="42.34px" height="52px" viewBox="0 0 42.34 52" enable-background="new 0 0 42.34 52" xml:space="preserve">
<g>
	<path fill="#C7C8C8" d="M35.363,27.63c-0.065-6.585,5.371-9.744,5.613-9.901c-3.054-4.47-7.813-5.082-9.509-5.152
		c-4.049-0.41-7.9,2.384-9.957,2.384c-2.049,0-5.221-2.324-8.579-2.263c-4.414,0.066-8.483,2.566-10.757,6.52
		C-2.41,27.175,1,38.963,5.469,45.417c2.185,3.158,4.789,6.707,8.209,6.58c3.293-0.132,4.537-2.131,8.519-2.131
		c3.979,0,5.101,2.131,8.584,2.065c3.544-0.066,5.788-3.221,7.957-6.39c2.509-3.664,3.541-7.213,3.603-7.396
		C42.262,38.111,35.432,35.496,35.363,27.63z M28.816,8.305C30.629,6.102,31.855,3.048,31.521,0
		c-2.614,0.105-5.782,1.741-7.658,3.938c-1.683,1.949-3.155,5.061-2.761,8.047C24.021,12.211,26.999,10.501,28.816,8.305z"/>
</g>
</svg>
