<?xml version="1.0" encoding="utf-8"?>
<!-- Generator: Adobe Illustrator 15.0.0, SVG Export Plug-In . SVG Version: 6.00 Build 0)  -->
<!DOCTYPE svg PUBLIC "-//W3C//DTD SVG 1.1//EN" "http://www.w3.org/Graphics/SVG/1.1/DTD/svg11.dtd">
<svg version="1.1" id="Layer_1" xmlns="http://www.w3.org/2000/svg" xmlns:xlink="http://www.w3.org/1999/xlink" x="0px" y="0px"
	 width="43px" height="43px" viewBox="0 0 43 43" enable-background="new 0 0 43 43" xml:space="preserve">
<g>
	<path fill="#349946" d="M12.682,17.415L9.68,20.43l9.667,9.667l21.5-21.5l-3.013-3.013L19.348,24.082L12.682,17.415z M38.695,21.5
		c0,9.459-7.736,17.195-17.195,17.195c-9.46,0-17.195-7.736-17.195-17.195c0-9.46,7.735-17.195,17.195-17.195
		c1.722,0,3.223,0.21,4.734,0.639l3.434-3.442C27.085,0.639,24.293,0,21.5,0C9.68,0,0,9.68,0,21.5C0,33.32,9.68,43,21.5,43
		C33.32,43,43,33.32,43,21.5H38.695z M38.695,21.5"/>
</g>
</svg>
