<?xml version="1.0" encoding="utf-8"?>
<!-- Generator: Adobe Illustrator 15.0.0, SVG Export Plug-In . SVG Version: 6.00 Build 0)  -->
<!DOCTYPE svg PUBLIC "-//W3C//DTD SVG 1.1//EN" "http://www.w3.org/Graphics/SVG/1.1/DTD/svg11.dtd">
<svg version="1.1" id="Layer_1" xmlns="http://www.w3.org/2000/svg" xmlns:xlink="http://www.w3.org/1999/xlink" x="0px" y="0px"
	 width="290px" height="210px" viewBox="0 0 290 210" enable-background="new 0 0 290 210" xml:space="preserve">
<g>
	<g>
		<g>
			<g>
				<path fill="#E8E8E8" d="M-290.574,146.872c0,0-22.55,4.548-19.176,12.913c4.22,10.466,34.938,33.552,50.287,39.525
					c10.851,4.221,10.957,3.717,21.524,1.564C-234.778,200.23-290.574,146.872-290.574,146.872z"/>
			</g>
			<g>
				<g>
					<path fill="#DDE6EB" d="M-238.085,123.096c0,0,6.015,19.666,20.25,26.416c0,0,0.294,1.027,3.668-0.146l52.83-15.555
						l0.733-5.578l-52.537,14.529c0,0-15.848-7.34-24.798-28.472L-238.085,123.096z"/>
				</g>
				<g>
					<polygon fill="#EBF0F4" points="-295.855,76.19 -239.101,108.52 -158.229,89.921 -218.753,59.601 					"/>
				</g>
				<g>
					<path fill="#F1F2F4" d="M-294.276,124.672l3.812,35.403l5.479,9.393l46.283,29.16l-0.533-89.159
						c0,0-4.856,19.104-25.167,32.773C-265.025,142.664-294.276,124.672-294.276,124.672z"/>
				</g>
				<g>
					<path fill="#C7D8E0" d="M-250.01,101.963c0,0,22.662,5.523,29.938-10.566c0,0,9.049,7.729,36.832,3.815l-55.239,13.797
						L-250.01,101.963z"/>
				</g>
				<g>
					<path fill="#F1F2F4" d="M-230.981,124.465l80.223-21.915l8.168,8.854l-80.956,22.453
						C-223.546,133.855-231.567,127.107-230.981,124.465z"/>
				</g>
				<g>
					<path fill="#F1F2F4" d="M-304.063,91.983l56.744,32.871c0,0-2.74,8.608-8.61,9.395l-57.526-34.438L-304.063,91.983z"/>
				</g>
				<g>
					<path fill="#DDE6EB" d="M-293.008,125.148l1.175,7.631l24.067,14.675c0,0,1.663,0.978,3.522,0.293
						c0,0,19.665-9.292,24.948-27.589v-5.869c0,0-14.676,24.359-25.242,26.122L-293.008,125.148z"/>
				</g>
				<g>
					<g>
						<g>
							<path fill="#3987C7" d="M-239.495,109.497c-0.199,0-0.396-0.052-0.573-0.149l-57.527-32.286
								c-0.424-0.239-0.658-0.716-0.585-1.2c0.071-0.481,0.435-0.869,0.91-0.973l77.484-16.828c0.259-0.057,0.529-0.023,0.767,0.093
								l62.416,30.523c0.447,0.219,0.709,0.697,0.65,1.192c-0.057,0.494-0.422,0.899-0.908,1.008l-82.375,18.59
								C-239.319,109.486-239.406,109.497-239.495,109.497z M-293.748,76.528l54.436,30.55l78.68-17.756l-59.054-28.879
								L-293.748,76.528z"/>
						</g>
					</g>
					<g>
						<g>
							<path fill="#3987C7" d="M-238.907,201.07c-0.226,0-0.45-0.065-0.643-0.191c-1.826-1.195-44.77-29.277-48.539-33.242
								c-2.172-2.289-2.639-5.207-2.657-5.328c-0.004-0.022-0.006-0.045-0.008-0.066l-3.523-37.569l2.339-0.218l3.517,37.523
								c0.046,0.25,0.476,2.398,2.034,4.041c2.839,2.987,32.172,22.463,47.684,32.608l70.568-18.81
								c0.246-0.157,1.025-0.732,1.255-1.875c1.213-6.06,5.462-37.021,5.848-52.043l2.349,0.063
								c-0.39,15.136-4.672,46.333-5.894,52.441c-0.498,2.489-2.5,3.519-2.583,3.56c-0.07,0.034-0.146,0.063-0.224,0.084
								l-71.221,18.979C-238.704,201.055-238.806,201.07-238.907,201.07z"/>
						</g>
					</g>
					<g>
						<g>
							<path fill="#3987C7" d="M-237.928,199.896h-2.348v-82.892c-6.7,16.281-23.313,24.828-24.127,25.237
								c-0.358,0.181-0.787,0.166-1.132-0.041c-46.091-27.693-57.135-35.993-57.241-36.074c-0.308-0.232-0.482-0.604-0.463-0.99
								c0.019-0.388,0.227-0.74,0.556-0.943c22.253-13.767,24.48-28.169,24.499-28.313l2.329,0.309
								c-0.081,0.616-2.201,14.948-24.11,29.064c4.103,2.883,18.257,12.464,55.066,34.592c3.454-1.921,21.733-12.896,24.637-31.508
								c0.094-0.605,0.648-1.033,1.251-0.988c0.611,0.047,1.083,0.557,1.083,1.17V199.896L-237.928,199.896z"/>
						</g>
					</g>
					<g>
						<g>
							<path fill="#3987C7" d="M-213.079,142.369c-0.204,0-0.405-0.055-0.585-0.157c-23.311-13.433-26.475-32.703-26.598-33.519
								l2.321-0.353c0.043,0.275,3.182,18.786,25.019,31.589l77.824-22.211c-5.627-2.686-17.03-10.095-23.131-27.798l2.221-0.765
								c7.734,22.449,24.679,27.576,24.849,27.626c0.505,0.146,0.849,0.606,0.849,1.13c-0.002,0.523-0.349,0.982-0.853,1.127
								l-81.594,23.285C-212.861,142.355-212.971,142.369-213.079,142.369z M-239.101,108.52l1.16-0.179c0,0.001,0,0.001,0,0.001
								L-239.101,108.52z"/>
						</g>
					</g>
					<g>
						<g>
							<path fill="#3D4751" d="M-205.684,177.504l-2.269-0.611c0.163-0.597,4.068-14.564,14.243-14.564
								c7.286,0,11.438,7.932,11.611,8.268l-2.09,1.071c-0.035-0.065-3.678-6.99-9.521-6.99
								C-202.107,164.676-205.648,177.376-205.684,177.504z"/>
						</g>
					</g>
					<g>
						<g>
							<circle fill="#3D4751" cx="-207.992" cy="158.217" r="2.936"/>
						</g>
					</g>
					<g>
						<g>
							<circle fill="#3D4751" cx="-185.881" cy="153.325" r="2.935"/>
						</g>
					</g>
					<g>
						<g>
							<rect x="-221.1" y="59.601" fill="#3987C7" width="2.347" height="44.222"/>
						</g>
					</g>
					<g>
						<g>
							<path fill="#3D4751" d="M-206.794,175.925c-0.646,0-1.174,0.526-1.174,1.173c0,0.65,0.526,1.176,1.174,1.176
								c0.649,0,1.174-0.524,1.174-1.176C-205.62,176.451-206.145,175.925-206.794,175.925L-206.794,175.925z"/>
						</g>
					</g>
					<g>
						<g>
							<path fill="#3D4751" d="M-183.141,169.958c-0.649,0-1.176,0.524-1.176,1.174c0,0.647,0.525,1.175,1.176,1.175
								c0.646,0,1.173-0.527,1.173-1.175C-181.968,170.482-182.494,169.958-183.141,169.958L-183.141,169.958z"/>
						</g>
					</g>
				</g>
				<g>
					<path fill="#F1F2F4" d="M-264.402,142.242"/>
				</g>
			</g>
		</g>
		<g>
			<polygon fill="#FFFFFF" points="-194.287,81.218 -183.036,73.281 -188.71,69.185 			"/>
		</g>
		<g>
			<polygon fill="#FFFFFF" points="-252.4,62.727 -235.963,87.291 -236.257,58.912 			"/>
		</g>
		<g>
			<path fill="none" d="M-240.617,28.238c-2.057-4.628-6.694-7.866-12.075-7.866c-7.284,0-13.209,5.925-13.209,13.208
				c0,0.668,0.053,1.326,0.148,1.968c0.498-0.065,1.001-0.11,1.516-0.11c6.33,0,11.47,5.055,11.626,11.346
				c2.348-0.014,4.551-0.646,6.459-1.738c-1.101-1.77-1.749-3.85-1.749-6.087C-247.899,34.092-244.881,29.936-240.617,28.238z"/>
		</g>
		<g>
			<path fill="none" d="M-264.237,37.786c-0.324,0-0.642,0.017-0.957,0.05c1.539,4.503,5.443,7.917,10.225,8.751
				C-255.227,41.693-259.278,37.786-264.237,37.786z"/>
		</g>
		<g>
			<path fill="none" d="M-239.485,33.581c0-1.075-0.133-2.118-0.375-3.119c-3.337,1.382-5.69,4.669-5.69,8.499
				c0,1.735,0.491,3.355,1.33,4.741C-241.328,41.276-239.485,37.641-239.485,33.581z"/>
		</g>
		<g>
			<path fill="none" d="M-267.488,38.386c-3.524,1.322-6.044,4.715-6.044,8.694c0,5.126,4.17,9.295,9.295,9.295
				c4.486,0,8.24-3.197,9.105-7.432C-260.958,48.026-265.708,43.875-267.488,38.386z"/>
		</g>
		<g>
			<path fill="none" d="M-242.758,45.548c1.656,1.611,3.914,2.609,6.404,2.609c5.07,0,9.196-4.125,9.196-9.196
				c0-5.071-4.125-9.197-9.196-9.197c-0.421,0-0.831,0.038-1.235,0.093c0.293,1.192,0.452,2.439,0.452,3.724
				C-237.138,38.393-239.323,42.695-242.758,45.548z"/>
		</g>
		<g>
			<path fill="#F1F2F4" d="M-250.32,20.152c0,0-9.156,0.802-8.438,9.833c0.514,6.457,5.576,7.704,5.576,7.704
				s-5.775,4.501-12.206-0.244c0,0-4.083-9.442,5.089-16.045C-251.127,14.796-250.761,20.006-250.32,20.152z"/>
		</g>
		<g>
			<path fill="#F1F2F4" d="M-257.951,46.715c0,0-0.018-0.017-0.047-0.042c-0.626,3.438-3.797,6.059-7.621,6.059
				c-4.274,0-7.741-3.269-7.741-7.301c0-2.37,1.201-4.469,3.056-5.802c-4.525,0.367-6.633,8.481-3.57,12.811
				c3.375,4.769,6.898,5.429,13.281,2.714C-254.209,52.438-257.951,46.715-257.951,46.715z"/>
		</g>
		<g>
			<polygon fill="#F1F2F4" points="-241.687,48.94 -237.186,66.159 -237.186,50.083 			"/>
		</g>
		<g>
			<path fill="#F1F2F4" d="M-227.866,41.505c0,0-0.661-6.75-6.458-7.337s-6.384,0.734-6.384,0.734s-0.091-1.956,0.651-4.83
				c0.743-2.875,9.328-0.307,11.163,2.188C-227.061,34.755-226.473,40.917-227.866,41.505z"/>
		</g>
		<g>
			<path fill="#DDE2E5" d="M-236.55,27.025c-0.675,0-1.333,0.07-1.977,0.181c-2.345-5.621-7.892-9.573-14.362-9.573
				c-8.59,0-15.555,6.963-15.555,15.556c0,0.854,0.072,1.691,0.204,2.508c-4.558,1.579-7.836,5.898-7.836,10.992
				c0,6.43,5.213,11.643,11.643,11.643c2.417,0,4.654-0.743,6.513-2.004l20.99,30.455c0.224,0.324,0.588,0.508,0.967,0.508
				c0.117,0,0.233-0.017,0.35-0.054c0.491-0.152,0.825-0.607,0.825-1.121V49.965c5.537-0.849,9.784-5.62,9.784-11.395
				C-225.005,32.193-230.174,27.025-236.55,27.025z M-234.789,47.593c-0.57,0.11-1.159,0.173-1.762,0.173
				c-0.198,0-0.392-0.017-0.587-0.028c-2.254-0.145-4.29-1.098-5.816-2.58c-0.564-0.547-1.053-1.17-1.461-1.846
				c-0.6,0.503-1.248,0.953-1.932,1.345c0.421,0.676,0.907,1.305,1.454,1.878c1.975,2.069,4.709,3.395,7.756,3.549v32.262
				l-18.975-27.527l-1.363-1.978c-0.523,0.591-1.121,1.115-1.777,1.559c-1.481,0.998-3.262,1.587-5.181,1.587
				c-5.125,0-9.294-4.17-9.294-9.295c0-3.98,2.52-7.374,6.044-8.695c0.727-0.274,1.494-0.467,2.295-0.549
				c-0.252-0.737-0.441-1.5-0.56-2.287c-0.097-0.644-0.148-1.3-0.148-1.969c0-7.283,5.926-13.208,13.208-13.208
				c5.383,0,10.021,3.238,12.077,7.866c0.314,0.712,0.569,1.453,0.756,2.224c0.716-0.296,1.478-0.498,2.272-0.605
				c0.404-0.055,0.814-0.093,1.233-0.093c5.071,0,9.196,4.125,9.196,9.196C-227.354,43.038-230.558,46.769-234.789,47.593z"/>
		</g>
		<g>
			<path fill="#F1F2F4" d="M-160.895,47.256c0,0-4.103-5.125-9.184-1.122c-3.634,2.862-2.37,6.364-2.37,6.364
				s-4.964-1.65-4.688-7.35c0,0,3.994-6.166,11.551-3.329C-158.029,44.654-160.979,46.936-160.895,47.256z"/>
		</g>
		<g>
			<path fill="#F1F2F4" d="M-179.7,53.239c0,0,0.002-0.017,0.007-0.044c-2.293,0.99-5.104,0.143-6.619-2.131
				c-1.693-2.541-1.121-5.894,1.273-7.492c1.407-0.938,3.132-1.054,4.659-0.481c-2.011-2.544-7.667-0.583-9.028,2.951
				c-1.496,3.894-0.494,6.249,3.646,8.969C-181.619,57.729-179.7,53.239-179.7,53.239z"/>
		</g>
		<g>
			<polygon fill="#F1F2F4" points="-174.583,63.787 -183.036,73.281 -173.48,66.913 			"/>
		</g>
		<g>
			<path fill="#F1F2F4" d="M-164.691,69.055c0,0,3.75-3.065,1.805-6.743c-1.946-3.677-2.965-3.503-2.965-3.503
				s1.127-0.828,3.129-1.526c2.002-0.698,3.877,5.422,3.119,7.5C-160.359,66.862-163.79,69.651-164.691,69.055z"/>
		</g>
		<g>
			<path fill="#DDE2E5" d="M-159.523,58.161c-0.269-0.401-0.568-0.766-0.892-1.104c2.414-3.619,2.565-8.48,0.003-12.324
				c-3.402-5.107-10.299-6.488-15.404-3.086c-0.51,0.338-0.978,0.712-1.412,1.114c-2.742-2.084-6.605-2.322-9.635-0.304
				c-3.82,2.545-4.854,7.708-2.309,11.528c0.955,1.437,2.281,2.472,3.77,3.078l-9.787,24.535c-0.104,0.261-0.07,0.551,0.08,0.776
				c0.045,0.068,0.104,0.133,0.172,0.187c0.283,0.232,0.687,0.25,0.99,0.047l21.486-14.316c2.697,2.956,7.215,3.589,10.646,1.301
				C-158.025,67.069-157,61.95-159.523,58.161z M-171.05,67.352c-0.292-0.294-0.563-0.62-0.802-0.978
				c-0.076-0.118-0.146-0.24-0.215-0.362c-0.809-1.396-1.049-2.983-0.771-4.478c0.103-0.552,0.278-1.087,0.519-1.6
				c-0.537-0.157-1.062-0.363-1.564-0.614c-0.235,0.517-0.415,1.053-0.542,1.607c-0.447,1.993-0.149,4.143,0.964,6.014
				l-19.174,12.776l8.846-22.178l0.637-1.593c-0.56-0.077-1.104-0.225-1.63-0.44c-1.182-0.483-2.235-1.311-2.995-2.451
				c-2.029-3.046-1.201-7.174,1.844-9.203c2.365-1.577,5.382-1.423,7.563,0.147c0.45,0.324,0.868,0.705,1.235,1.147
				c0.336-0.442,0.716-0.857,1.136-1.239c0.345-0.312,0.714-0.603,1.11-0.868c4.328-2.883,10.197-1.709,13.082,2.619
				c2.132,3.199,2.043,7.239,0.104,10.292c-0.297,0.468-0.638,0.915-1.021,1.33c0.459,0.309,0.883,0.683,1.26,1.111
				c0.189,0.219,0.376,0.447,0.542,0.696c2.01,3.015,1.19,7.1-1.824,9.109C-165.4,69.967-168.887,69.54-171.05,67.352z"/>
			<path fill="#DDE2E5" d="M-194.412,83.042c-0.259,0-0.512-0.09-0.712-0.254c-0.089-0.069-0.168-0.155-0.229-0.251
				c-0.205-0.308-0.246-0.7-0.107-1.046l9.682-24.27c-1.482-0.664-2.736-1.72-3.637-3.071c-1.273-1.914-1.727-4.209-1.275-6.464
				c0.451-2.254,1.754-4.198,3.666-5.472c1.416-0.943,3.062-1.443,4.756-1.443c1.793,0,3.568,0.572,5.022,1.612
				c0.406-0.36,0.832-0.689,1.269-0.979c1.879-1.252,4.063-1.916,6.313-1.916c3.829,0,7.381,1.901,9.5,5.082
				c2.518,3.779,2.561,8.643,0.124,12.457c0.293,0.324,0.544,0.644,0.765,0.974c1.264,1.896,1.713,4.174,1.266,6.409
				c-0.447,2.236-1.737,4.165-3.637,5.429c-1.406,0.936-3.037,1.431-4.717,1.431c0,0,0,0-0.001,0c-2.312,0-4.534-0.943-6.137-2.595
				l-21.28,14.179C-193.971,82.977-194.188,83.042-194.412,83.042z M-182.271,41.358c-1.58,0-3.109,0.465-4.43,1.343
				c-1.783,1.189-2.996,2.999-3.417,5.1c-0.421,2.101,0.002,4.241,1.188,6.023c0.89,1.334,2.147,2.36,3.638,2.967l0.271,0.11
				l-9.896,24.807c-0.066,0.167-0.047,0.355,0.052,0.503c0.03,0.045,0.066,0.085,0.11,0.119c0.183,0.15,0.449,0.163,0.645,0.033
				l21.697-14.456l0.169,0.187c1.5,1.644,3.642,2.587,5.877,2.587l0,0c1.563,0,3.082-0.462,4.39-1.332
				c1.769-1.178,2.971-2.974,3.389-5.057c0.418-2.082-0.001-4.202-1.18-5.969c-0.239-0.36-0.521-0.708-0.857-1.065l-0.161-0.169
				l0.129-0.196c2.431-3.645,2.433-8.354,0.003-11.999c-2.012-3.019-5.381-4.821-9.012-4.821c-2.134,0-4.203,0.628-5.986,1.817
				c-0.477,0.317-0.938,0.682-1.375,1.085l-0.18,0.167l-0.197-0.149C-178.794,41.94-180.521,41.358-182.271,41.358z
				 M-193.256,80.485l9.695-24.308c-0.455-0.088-0.901-0.221-1.334-0.398c-1.28-0.526-2.361-1.409-3.127-2.558
				c-2.119-3.182-1.256-7.494,1.926-9.613c1.136-0.758,2.459-1.157,3.822-1.157c1.451,0,2.896,0.465,4.072,1.312
				c0.391,0.28,0.741,0.591,1.055,0.926c0.295-0.358,0.612-0.694,0.948-0.997c0.357-0.324,0.743-0.625,1.146-0.894
				c1.601-1.065,3.46-1.629,5.379-1.629c3.271,0,6.302,1.619,8.106,4.328c2.131,3.196,2.174,7.361,0.11,10.612
				c-0.251,0.396-0.53,0.773-0.832,1.123c0.373,0.281,0.724,0.604,1.042,0.967c0.232,0.264,0.412,0.496,0.566,0.728
				c2.099,3.148,1.246,7.417-1.903,9.515c-1.128,0.751-2.438,1.148-3.79,1.148c-1.829,0-3.609-0.741-4.889-2.033
				c-0.317-0.322-0.6-0.666-0.836-1.021c-0.071-0.11-0.137-0.221-0.199-0.334c-0.842-1.455-1.128-3.115-0.83-4.721
				c0.086-0.461,0.223-0.919,0.404-1.365c-0.342-0.113-0.682-0.247-1.014-0.4c-0.17,0.414-0.308,0.842-0.402,1.274
				c-0.444,1.985-0.116,4.046,0.93,5.801l0.143,0.24L-193.256,80.485z M-182.271,43.038c-1.25,0-2.459,0.366-3.5,1.059
				c-2.91,1.94-3.699,5.887-1.762,8.798c0.701,1.051,1.689,1.861,2.862,2.341c0.501,0.206,1.024,0.349,1.56,0.422l0.37,0.051
				l-9.271,23.243l18.162-12.1c-1.014-1.831-1.316-3.947-0.859-5.989c0.13-0.568,0.316-1.128,0.561-1.664l0.127-0.277l0.271,0.136
				c0.493,0.246,1.002,0.444,1.517,0.595l0.33,0.096l-0.146,0.31c-0.232,0.494-0.398,1.009-0.495,1.53
				c-0.272,1.468-0.011,2.986,0.735,4.276c0.084,0.147,0.141,0.248,0.207,0.347c0.213,0.324,0.472,0.638,0.764,0.933
				c1.167,1.181,2.798,1.858,4.47,1.858c1.235,0,2.433-0.363,3.464-1.05c2.881-1.917,3.662-5.821,1.743-8.7
				c-0.142-0.211-0.306-0.422-0.519-0.665c-0.363-0.413-0.77-0.77-1.203-1.063l-0.283-0.19l0.23-0.251
				c0.362-0.396,0.696-0.829,0.987-1.29c1.939-3.055,1.898-6.969-0.102-9.971c-1.698-2.548-4.546-4.068-7.62-4.068
				c-1.805,0-3.551,0.53-5.055,1.53c-0.379,0.254-0.741,0.536-1.076,0.842c-0.396,0.358-0.766,0.761-1.1,1.199l-0.226,0.292
				l-0.235-0.284c-0.332-0.401-0.729-0.771-1.182-1.095C-179.618,43.464-180.943,43.038-182.271,43.038z"/>
		</g>
		<g>
			<polygon fill="#DCE9EF" points="-251.226,-2.5 -250.427,-0.881 -248.64,-0.621 -249.932,0.639 -249.627,2.417 -251.226,1.577 
				-252.822,2.417 -252.518,0.639 -253.811,-0.621 -252.024,-0.881 			"/>
		</g>
		<g>
			<polygon fill="#DEE9ED" points="-344.413,87.884 -343.84,89.042 -342.561,89.228 -343.485,90.131 -343.268,91.405 
				-344.413,90.804 -345.557,91.405 -345.338,90.131 -346.264,89.228 -344.984,89.042 			"/>
		</g>
		<g>
			<polygon fill="#DEE8EA" points="-144.805,73.978 -144.004,75.596 -142.218,75.856 -143.512,77.117 -143.206,78.896 
				-144.805,78.055 -146.4,78.896 -146.098,77.117 -147.389,75.856 -145.602,75.596 			"/>
		</g>
		<g>
			<polygon fill="#DEE9EF" points="-318.272,47.321 -320.162,44.049 -318.272,40.775 -314.493,40.775 -312.604,44.049 
				-314.493,47.321 			"/>
		</g>
		<g>
			<polygon fill="#DEE9EF" points="-151.384,41.079 -153.49,39.862 -153.49,37.43 -151.384,36.215 -149.277,37.43 -149.277,39.862 
							"/>
		</g>
		<g>
			<polygon fill="#DEE9EF" points="-205.082,17.707 -206.861,16.68 -206.861,14.625 -205.082,13.598 -203.305,14.625 
				-203.305,16.68 			"/>
		</g>
		<g>
			<polygon fill="#DDE8EE" points="-343.556,107.376 -344.387,104.818 -342.211,103.238 -340.035,104.818 -340.866,107.376 			"/>
		</g>
		<g>
			<polygon fill="#DDE8EC" points="-106.727,126.395 -104.896,123.241 -101.329,124.008 -100.957,127.634 -104.294,129.109 			"/>
		</g>
	</g>
	<g>
		<g>
			<path fill="#F1F2F4" d="M-312.479,162.407l-39.477,9.394l-1.125,6.065l22.893-5.479c0,0,7.043,4.697,11.543,3.523
				C-314.142,174.736-309.153,164.366-312.479,162.407z"/>
		</g>
		<g>
			<path fill="#E8E8E8" d="M-370.201,182.758c0,0,0.147,7.34,7.485,7.486h8.071c0,0,5.577-0.881,4.256-5.432l-11.447,2.201
				L-370.201,182.758z"/>
		</g>
		<g>
			<g>
				<g>
					<g>
						<path fill="#C4CBD1" d="M-317.455,146.602c3.245,7.447,8.092,22.986,0.851,27.736c-1.313,0.862-2.644,1.279-4.067,1.279
							c-4.127,0-7.572-3.6-7.601-3.631l-0.965-1.037l-1.369,0.371l-21.563,5.852c1.306-4.689,2.127-12.525-2.326-21.744
							L-317.455,146.602 M-316.124,143.87l-41.874,9.979c8.805,15.063,1.958,26.807,1.958,26.807l26.048-7.071
							c0,0,4.073,4.381,9.32,4.381c1.696,0,3.514-0.456,5.355-1.665C-304.017,168.891-316.124,143.87-316.124,143.87
							L-316.124,143.87z"/>
					</g>
				</g>
				<g>
					<g>
						<path fill="#C4CBD1" d="M-361.187,189.094c-0.454,0-5.008-0.126-8.233-5.001l-0.862-1.304l17.757-5.542l0.699,2.241
							l-14.654,4.574c2.169,2.379,4.599,2.647,5.162,2.681l41.441-11.109l0.608,2.267l-41.743,11.191l-0.145,0.004
							C-361.162,189.094-361.173,189.094-361.187,189.094z"/>
					</g>
				</g>
			</g>
			<g>
				<path fill="#65BE64" d="M-346.916,169.509v0.263l21.517-5.275l-0.281-1.141l-21.236,5.231
					C-346.912,168.891-346.912,169.2-346.916,169.509z"/>
			</g>
			<g>
				<path fill="#3C88C6" d="M-347.119,165.365c-0.023-0.186-0.048-0.372-0.075-0.557l-0.053,0.014L-347.119,165.365z"/>
			</g>
			<g>
				<path fill="#65BE64" d="M-348.934,157.904c0.105,0.281,0.242,0.658,0.392,1.113l28.978-7.166
					c-0.193-0.472-0.354-0.84-0.468-1.096L-348.934,157.904z"/>
			</g>
			<g>
				<path fill="#65BE64" d="M-347.932,161.105c0.093,0.361,0.185,0.74,0.273,1.143l29.337-6.971
					c-0.124-0.391-0.248-0.764-0.372-1.118L-347.932,161.105z"/>
			</g>
			<g>
				<path fill="#65BE64" d="M-347.193,164.809c0.026,0.186,0.052,0.371,0.075,0.558l0.141,0.6l29.638-6.97
					c-0.082-0.391-0.168-0.771-0.259-1.146L-347.193,164.809z"/>
			</g>
			<g>
				<path fill="#65BE64" d="M-347.082,172.26c-0.052,0.417-0.118,0.838-0.194,1.262l30.417-7.619
					c0.044-0.408,0.074-0.817,0.087-1.23L-347.082,172.26z"/>
			</g>
		</g>
	</g>
	<g>
		<g>
			<g>
				<path fill="#E7E7E7" d="M-136.521,177.146c0,0-7.535,2.64-4.013,5.722c0,0,16.729,12.769,28.177,11.446l-13.795-8.656
					L-136.521,177.146z"/>
			</g>
			<g>
				<polygon fill="#F0F1F5" points="-113.826,159.096 -134.37,178.023 -126.152,185.657 -104.58,167.02 				"/>
			</g>
			<g>
				<path fill="#C3CAD0" d="M-110.598,194.902c-0.113,0-0.23-0.02-0.346-0.053c-29.066-8.945-30.428-28.695-30.471-29.529
					c-0.018-0.344,0.113-0.674,0.359-0.91l20.693-19.814c0.287-0.277,0.702-0.388,1.092-0.289c0.394,0.096,0.705,0.387,0.834,0.768
					c8.166,24.501,28.688,26.043,28.896,26.057c0.458,0.029,0.856,0.321,1.022,0.752c0.166,0.428,0.064,0.912-0.256,1.243
					l-20.985,21.424C-109.982,194.775-110.287,194.902-110.598,194.902z M-139.02,165.714c0.385,3.111,3.518,18.851,28.088,26.681
					l18.886-19.285c-5.797-1.186-20.767-6.084-28.007-25.555L-139.02,165.714z"/>
			</g>
		</g>
		<g>
			<path fill="none" d="M-118.447,157.884l-15.14,14.026c0.821,1.637,2.006,3.503,3.694,5.374l15.084-13.636l0.787,0.871
				l-15.064,13.617c0.596,0.602,1.248,1.201,1.961,1.793l15.109-13.853C-114.809,163.426-116.958,160.369-118.447,157.884z
				 M-131.048,175.09l-0.777-0.882l12.328-10.858l0.776,0.881L-131.048,175.09z"/>
		</g>
		<g>
			<path fill="none" d="M-120.251,154.581l-14.788,13.649c0.195,0.687,0.492,1.563,0.93,2.564l15.057-13.949
				C-119.549,155.967-119.951,155.193-120.251,154.581z"/>
		</g>
		<g>
			<path fill="#5EBF58" d="M-120.251,154.581c-0.235-0.481-0.409-0.856-0.524-1.113l-14.578,13.454
				c0.051,0.266,0.146,0.714,0.314,1.309L-120.251,154.581z"/>
		</g>
		<g>
			<path fill="#5EBF58" d="M-119.055,156.846l-15.055,13.95c0.154,0.356,0.328,0.729,0.521,1.114l15.14-14.026
				C-118.664,157.523-118.865,157.18-119.055,156.846z"/>
		</g>
		<g>
			
				<rect x="-125.861" y="160.987" transform="matrix(0.6613 0.7502 -0.7502 0.6613 84.4922 151.2887)" fill="#5EBF58" width="1.176" height="16.429"/>
		</g>
		<g>
			<path fill="#5EBF58" d="M-114.809,163.648l-15.084,13.636c0.256,0.282,0.526,0.567,0.807,0.853l15.064-13.617L-114.809,163.648z"
				/>
		</g>
		<g>
			<path fill="#5EBF58" d="M-127.125,179.93c0.3,0.247,0.607,0.492,0.932,0.738l15.049-13.795c-0.297-0.262-0.588-0.523-0.869-0.795
				L-127.125,179.93z"/>
		</g>
	</g>
</g>
<g>
	<g>
		<polygon fill="#DDE9EF" points="54.381,123.867 55.923,126.992 59.371,127.494 56.876,129.927 57.465,133.36 54.381,131.739 
			51.297,133.36 51.886,129.927 49.391,127.494 52.84,126.992 		"/>
	</g>
	<g>
		<path fill="#F1F2F4" d="M183.441,128.114h41.521c0.781-2.008,1.49-4.051,2.125-6.127h-22.713v-15.828h25.988
			c0.208-1.856,0.363-3.728,0.457-5.617h-19.296V84.714h18.657c-5.632-43.217-42.585-76.591-87.334-76.591
			c-28.815,0-54.398,13.838-70.468,35.232h7.408v15.828H62.909c-1.456,3.139-2.732,6.377-3.815,9.703h20.694v15.829H55.513
			c-0.489,3.761-0.746,7.594-0.746,11.489c0,48.645,39.435,88.078,88.08,88.078c22.302,0,42.662-8.292,58.18-21.954h-17.586V128.114
			z"/>
	</g>
	<g>
		<polygon fill="#FFFFFF" points="80.795,97.424 204.872,97.424 184.448,51.494 158.406,36.539 113.475,33.869 92.029,55.232 		"/>
	</g>
	<g>
		<g>
			<path fill="#F1F2F4" d="M213.682,203.885c0,2.538-2.06,4.596-4.596,4.596H76.583c-2.538,0-4.596-2.058-4.596-4.596l0,0
				c0-2.537,2.058-4.597,4.596-4.597h132.502C211.622,199.288,213.682,201.348,213.682,203.885L213.682,203.885z"/>
		</g>
		<g>
			<g>
				<g>
					<path fill="#3988C8" d="M45.179,132.307c-1.156,0-2.336-0.144-3.517-0.44c-5.431-1.366-9.142-5.474-9.685-10.721
						c-0.302-2.913-0.863-3.611-1.513-4.417c-0.306-0.382-0.653-0.813-0.974-1.407c-1.239-2.302-0.889-5.245,0.83-7.001
						c1.726-1.762,4.394-1.978,7.139-0.571c3.832,1.961,6.131,3.386,7.428,4.274c1.819-1.468,4.615-2.723,7.5-1.375
						c1.925,0.898,4.508,3.157,5.449,6.568c0.594,2.152,0.734,5.555-1.969,9.542C53.459,130.309,49.485,132.307,45.179,132.307z
						 M33.99,110.648c-0.353,0-0.683,0.095-0.934,0.351c-0.549,0.562-0.635,1.685-0.194,2.506c0.153,0.284,0.345,0.521,0.586,0.822
						c1.051,1.305,1.952,2.689,2.339,6.425c0.445,4.306,3.809,6.646,6.809,7.4c3.035,0.764,7.5,0.295,10.101-3.543
						c1.512-2.23,2-4.374,1.448-6.374c-0.556-2.015-2.097-3.52-3.376-4.116c-0.997-0.466-2.052-0.066-2.863,0.454
						c1.675,1.908,3.029,4.774,1.572,7.868c-0.451,0.957-1.591,1.367-2.548,0.916c-0.957-0.45-1.368-1.591-0.917-2.548
						c1.078-2.29-1.947-4.62-2.097-4.733c-0.009-0.008-0.019-0.015-0.027-0.021l-0.11-0.088c-0.008-0.007-0.017-0.015-0.025-0.022
						c-0.036-0.03-1.96-1.675-8.04-4.786C35.271,110.931,34.598,110.648,33.99,110.648z"/>
				</g>
				<g>
					<path fill="#3988C8" d="M74.889,148.229c-17.769,0-26.577-15.261-26.943-15.911c-0.519-0.92-0.193-2.089,0.728-2.607
						c0.921-0.521,2.087-0.194,2.608,0.726c0.121,0.211,8.156,13.962,23.608,13.962c10.998,0,13.759-1.766,13.787-1.784
						c-0.066,0.044-0.092,0.071-0.092,0.071l2.48,2.918C90.548,146.042,87.345,148.229,74.889,148.229z"/>
				</g>
			</g>
			<g>
				<g>
					<path fill="#3988C8" d="M240.49,132.307c-4.305,0-8.279-1.997-10.688-5.548c-2.704-3.987-2.564-7.39-1.971-9.542
						c0.942-3.411,3.524-5.67,5.45-6.568c2.885-1.348,5.682-0.093,7.502,1.375c1.296-0.889,3.596-2.314,7.425-4.274
						c2.746-1.403,5.414-1.191,7.141,0.572c1.719,1.755,2.067,4.698,0.829,6.999c-0.32,0.596-0.667,1.026-0.974,1.407
						c-0.649,0.806-1.211,1.504-1.513,4.419c-0.542,5.245-4.253,9.354-9.684,10.719C242.829,132.163,241.647,132.307,240.49,132.307
						z M235.836,113.914c-0.312,0-0.626,0.061-0.935,0.205c-1.279,0.597-2.82,2.102-3.377,4.116c-0.552,2-0.064,4.144,1.448,6.374
						c2.602,3.836,7.07,4.306,10.103,3.543c3-0.755,6.364-3.096,6.809-7.399c0.387-3.736,1.287-5.121,2.337-6.426
						c0.242-0.301,0.433-0.538,0.587-0.824c0.442-0.819,0.355-1.942-0.194-2.503c-0.682-0.699-1.96-0.2-2.659,0.158
						c-6.045,3.094-7.98,4.736-8.048,4.796c-0.01,0.007-0.019,0.015-0.026,0.022l-0.08,0.064c-0.017,0.014-0.033,0.025-0.049,0.038
						c-0.132,0.099-3.175,2.435-2.094,4.731c0.45,0.956,0.039,2.097-0.918,2.547c-0.956,0.451-2.097,0.041-2.547-0.917
						c-1.456-3.093-0.103-5.958,1.572-7.866C237.204,114.214,236.528,113.914,235.836,113.914z"/>
				</g>
				<g>
					<path fill="#3988C8" d="M210.78,148.229c-12.454,0-15.658-2.188-16.175-2.626l2.479-2.918c0,0-0.025-0.027-0.091-0.071
						c0.027,0.018,2.79,1.784,13.786,1.784c15.557,0,23.53-13.82,23.607-13.96c0.52-0.921,1.687-1.248,2.608-0.728
						c0.921,0.519,1.247,1.688,0.727,2.607C237.357,132.969,228.549,148.229,210.78,148.229z"/>
				</g>
			</g>
		</g>
		<g>
			<g>
				<path fill="#358AC9" d="M96.62,182.774c0,0-2.202-0.097-2.441,2.489v6.605h-4.452c0,0-10.765,1.545-8.999,9.19
					c0.574,2.489,3.829,3.159,3.829,3.159h22.786c0,0,3.397-0.334,3.542-3.877v-14.744c0,0-0.191-2.823-2.729-2.823H96.62z"/>
			</g>
			<g>
				<path fill="#358AC9" d="M189.049,182.774c0,0,2.202-0.097,2.441,2.489v6.605h4.452c0,0,10.765,1.545,8.999,9.19
					c-0.574,2.489-3.829,3.159-3.829,3.159h-22.785c0,0-3.399-0.334-3.543-3.877v-14.744c0,0,0.192-2.823,2.729-2.823H189.049z"/>
			</g>
		</g>
		<g>
			<g>
				<path fill="#358AC9" d="M105.188,182.822h-3.83v-8.329c0-8.205,5.971-16.229,6.225-16.566l3.059,2.304l-1.529-1.151l1.53,1.15
					c-0.054,0.072-5.456,7.353-5.456,14.264V182.822z"/>
			</g>
			<g>
				<path fill="#358AC9" d="M184.31,182.822h-3.829v-8.329c0-6.939-5.4-14.19-5.454-14.263l3.06-2.304
					c0.255,0.337,6.224,8.361,6.224,16.566V182.822z"/>
			</g>
		</g>
		<g>
			<g>
				<path fill="#358AC9" d="M142.835,39.542c31.251,0,56.676,25.426,56.676,56.677c0,31.252-25.425,56.677-56.676,56.677
					c-31.252,0-56.678-25.425-56.678-56.677C86.157,64.967,111.583,39.542,142.835,39.542 M142.835,24.223
					c-39.763,0-71.996,32.233-71.996,71.996c0,39.762,32.233,71.996,71.996,71.996c39.76,0,71.995-32.234,71.995-71.996
					C214.83,56.456,182.596,24.223,142.835,24.223L142.835,24.223z"/>
			</g>
		</g>
		<g>
			<g>
				<circle fill="#358AC9" cx="119.407" cy="90.402" r="3.829"/>
			</g>
			<g>
				<circle fill="#358AC9" cx="166.893" cy="90.337" r="3.83"/>
			</g>
		</g>
		<g>
			<path fill="#358AC9" d="M148.512,113.892c0-2.962-2.399-5.361-5.362-5.361c-2.96,0-5.361,2.399-5.361,5.361
				c0,0.172,0.01,0.341,0.026,0.511h10.671C148.503,114.232,148.512,114.063,148.512,113.892z"/>
		</g>
		<g>
			<g>
				<path fill="#358AC9" d="M140.92,136.38v8.092h3.829v-8.092c-0.635,0.029-1.271,0.049-1.913,0.049
					C142.194,136.429,141.555,136.409,140.92,136.38z"/>
			</g>
			<g>
				<path fill="#358AC9" d="M144.75,56.057v-8.09h-3.829v8.09c0.635-0.03,1.273-0.048,1.916-0.048
					C143.478,56.009,144.115,56.026,144.75,56.057z"/>
			</g>
			<g>
				<path fill="#358AC9" d="M160.238,141.236l2.123-0.88l-3.085-7.444c-0.697,0.313-1.403,0.607-2.121,0.881L160.238,141.236z"/>
			</g>
			<g>
				<path fill="#358AC9" d="M125.43,51.2l-2.122,0.879l3.084,7.447c0.698-0.313,1.404-0.607,2.122-0.882L125.43,51.2z"/>
			</g>
			<g>
				<path fill="#358AC9" d="M115.788,66.464l-5.719-5.719l-2.708,2.708l5.719,5.719C113.94,68.228,114.843,67.324,115.788,66.464z"
					/>
			</g>
			<g>
				<path fill="#358AC9" d="M169.882,125.973l5.719,5.719l2.708-2.708l-5.719-5.719
					C171.731,124.211,170.826,125.114,169.882,125.973z"/>
			</g>
			<g>
				<path fill="#358AC9" d="M186.975,115.745l0.88-2.123l-7.444-3.083c-0.273,0.717-0.569,1.425-0.882,2.121L186.975,115.745z"/>
			</g>
			<g>
				<path fill="#358AC9" d="M98.696,76.691l-0.88,2.123l7.443,3.083c0.274-0.717,0.569-1.424,0.883-2.121L98.696,76.691z"/>
			</g>
			<g>
				<path fill="#358AC9" d="M182.995,98.132h8.092v-3.83h-8.092c0.03,0.636,0.05,1.273,0.05,1.917
					C183.045,96.86,183.025,97.498,182.995,98.132z"/>
			</g>
			<g>
				<path fill="#358AC9" d="M102.673,94.304h-8.091v3.83h8.091c-0.029-0.636-0.049-1.273-0.049-1.915
					C102.624,95.575,102.644,94.938,102.673,94.304z"/>
			</g>
			<g>
				<path fill="#358AC9" d="M187.854,78.814l-0.88-2.123l-7.446,3.085c0.313,0.699,0.607,1.404,0.881,2.122L187.854,78.814z"/>
			</g>
			<g>
				<path fill="#358AC9" d="M97.816,113.622l0.88,2.123l7.446-3.083c-0.313-0.698-0.608-1.405-0.883-2.123L97.816,113.622z"/>
			</g>
			<g>
				<path fill="#358AC9" d="M113.081,123.265l-5.719,5.719l2.708,2.708l5.719-5.719
					C114.843,125.114,113.939,124.211,113.081,123.265z"/>
			</g>
			<g>
				<path fill="#358AC9" d="M172.588,69.171l5.719-5.719l-2.707-2.708l-5.719,5.719C170.826,67.322,171.729,68.226,172.588,69.171z"
					/>
			</g>
			<g>
				<path fill="#358AC9" d="M123.309,140.356l2.123,0.88l3.083-7.443c-0.717-0.273-1.424-0.568-2.121-0.881L123.309,140.356z"/>
			</g>
			<g>
				<path fill="#358AC9" d="M162.361,52.079l-2.123-0.879l-3.083,7.443c0.718,0.273,1.424,0.57,2.123,0.883L162.361,52.079z"/>
			</g>
		</g>
		<g>
			<polygon fill="#C41010" points="144.455,98.134 143.627,98.134 143.044,98.717 142.921,99.012 144.75,100.839 144.75,98.255 			
				"/>
		</g>
		<g>
			<polygon fill="#C41010" points="144.75,98.134 144.75,98.255 144.958,98.34 144.872,98.134 			"/>
		</g>
		<g>
			<polygon fill="#C41010" points="144.75,98.255 144.75,98.134 144.455,98.134 			"/>
		</g>
		<g>
			<polygon fill="#C41010" points="142.042,94.304 141.215,94.304 141.799,94.546 			"/>
		</g>
		<g>
			<polygon fill="#C41010" points="143.627,98.134 144.455,98.134 143.871,97.89 			"/>
		</g>
		<g>
			<polygon fill="#C41010" points="140.92,94.597 140.92,95.426 141.162,95.183 			"/>
		</g>
		<g>
			<polygon fill="#C41010" points="144.75,97.839 144.75,97.012 144.506,97.254 			"/>
		</g>
		<g>
			<polygon fill="#C41010" points="144.872,98.134 144.75,97.839 144.75,98.134 			"/>
		</g>
		<g>
			<polygon fill="#C41010" points="143.871,97.89 144.455,98.134 144.75,98.134 144.75,97.839 144.506,97.254 			"/>
		</g>
		<g>
			<polygon fill="#C41010" points="145.542,96.218 145.629,96.304 145.836,96.219 145.629,96.132 			"/>
		</g>
		<g>
			<polygon fill="#C41010" points="140.128,96.218 140.041,96.132 139.833,96.219 140.041,96.304 			"/>
		</g>
		<g>
			<polygon fill="#C41010" points="145.333,96.426 145.629,96.304 145.542,96.218 			"/>
		</g>
		<g>
			<polygon fill="#C41010" points="140.041,96.132 140.128,96.218 140.335,96.011 			"/>
		</g>
		<g>
			<polygon fill="#C41010" points="142.627,93.718 142.042,94.304 142.385,94.304 			"/>
		</g>
		<g>
			<polygon fill="#C41010" points="143.044,98.717 143.627,98.134 143.285,98.134 			"/>
		</g>
		<g>
			<polygon fill="#C41010" points="143.457,97.719 143.285,98.134 143.627,98.134 143.871,97.89 			"/>
		</g>
		<g>
			<polygon fill="#C41010" points="142.214,94.717 142.385,94.304 142.042,94.304 141.799,94.546 			"/>
		</g>
		<g>
			<polygon fill="#C41010" points="140.92,95.426 140.335,96.011 140.92,95.769 			"/>
		</g>
		<g>
			<polygon fill="#C41010" points="144.75,97.012 145.333,96.426 144.75,96.669 			"/>
		</g>
		<g>
			<polygon fill="#C41010" points="141.333,95.596 141.162,95.183 140.92,95.426 140.92,95.769 			"/>
		</g>
		<g>
			<polygon fill="#C41010" points="144.336,96.841 144.506,97.254 144.75,97.012 144.75,96.669 			"/>
		</g>
		<g>
			<polygon fill="#C41010" points="142.214,94.717 141.799,94.546 141.162,95.183 141.333,95.596 141.956,95.34 			"/>
		</g>
		<g>
			<polygon fill="#C41010" points="143.457,97.719 143.871,97.89 144.506,97.254 144.336,96.841 143.715,97.099 			"/>
		</g>
		<g>
			<polygon fill="#C41010" points="144.75,95.424 144.75,94.6 144.507,95.183 			"/>
		</g>
		<g>
			<polygon fill="#C41010" points="140.92,97.01 140.92,97.84 141.163,97.254 			"/>
		</g>
		<g>
			<polygon fill="#C41010" points="145.334,96.009 144.75,95.424 144.75,95.767 			"/>
		</g>
		<g>
			<polygon fill="#C41010" points="140.337,96.426 140.92,97.01 140.92,96.669 			"/>
		</g>
		<g>
			<polygon fill="#C41010" points="141.334,96.839 140.92,96.669 140.92,97.01 141.163,97.254 			"/>
		</g>
		<g>
			<polygon fill="#C41010" points="144.337,95.596 144.75,95.767 144.75,95.424 144.507,95.183 			"/>
		</g>
		<g>
			<polygon fill="#C41010" points="145.629,96.132 145.334,96.009 145.542,96.218 			"/>
		</g>
		<g>
			<polygon fill="#C41010" points="140.041,96.304 140.337,96.426 140.128,96.218 			"/>
		</g>
		<g>
			<polygon fill="#C41010" points="145.334,96.009 144.75,95.767 144.75,96.669 145.333,96.426 145.542,96.218 			"/>
		</g>
		<g>
			<polygon fill="#C41010" points="144.079,96.219 144.336,96.841 144.75,96.669 144.75,95.767 144.337,95.596 			"/>
		</g>
		<g>
			<polygon fill="#C41010" points="141.333,95.596 140.92,95.769 140.92,96.669 141.334,96.839 141.591,96.219 			"/>
		</g>
		<g>
			<polygon fill="#C41010" points="143.715,97.099 144.336,96.841 144.079,96.219 			"/>
		</g>
		<g>
			<polygon fill="#C41010" points="141.956,95.34 141.333,95.596 141.591,96.219 			"/>
		</g>
		<g>
			<polygon fill="#C41010" points="142.835,93.509 142.92,93.424 142.834,93.217 142.75,93.424 			"/>
		</g>
		<g>
			<polygon fill="#C41010" points="142.835,98.925 142.749,99.012 142.834,99.222 142.921,99.012 			"/>
		</g>
		<g>
			<polygon fill="#C41010" points="142.921,99.012 143.044,98.717 142.835,98.925 			"/>
		</g>
		<g>
			<polygon fill="#C41010" points="142.75,93.424 142.627,93.718 142.835,93.509 			"/>
		</g>
		<g>
			<polygon fill="#C41010" points="142.92,93.424 142.835,93.509 143.042,93.718 			"/>
		</g>
		<g>
			<polygon fill="#C41010" points="142.749,99.012 142.835,98.925 142.625,98.715 			"/>
		</g>
		<g>
			<polygon fill="#C41010" points="143.628,94.304 143.042,93.718 143.284,94.304 			"/>
		</g>
		<g>
			<polygon fill="#C41010" points="142.042,98.134 142.625,98.715 142.384,98.134 			"/>
		</g>
		<g>
			<polygon fill="#C41010" points="143.284,94.304 143.042,93.718 142.835,93.509 142.627,93.718 142.385,94.304 			"/>
		</g>
		<g>
			<polygon fill="#C41010" points="144.457,94.304 143.628,94.304 143.871,94.546 			"/>
		</g>
		<g>
			<polygon fill="#C41010" points="141.216,98.134 142.042,98.134 141.8,97.892 			"/>
		</g>
		<g>
			<polygon fill="#C41010" points="143.456,94.717 143.871,94.546 143.628,94.304 143.284,94.304 			"/>
		</g>
		<g>
			<polygon fill="#C41010" points="142.213,97.719 141.8,97.892 142.042,98.134 142.384,98.134 			"/>
		</g>
		<g>
			<polygon fill="#C41010" points="142.213,97.719 142.384,98.134 143.285,98.134 143.457,97.719 142.835,97.462 			"/>
		</g>
		<g>
			<polygon fill="#C41010" points="143.456,94.717 143.284,94.304 142.385,94.304 142.214,94.717 142.835,94.975 			"/>
		</g>
		<g>
			<polygon fill="#C41010" points="142.835,97.462 143.457,97.719 143.715,97.099 			"/>
		</g>
		<g>
			<polygon fill="#C41010" points="142.835,94.975 142.214,94.717 141.956,95.34 			"/>
		</g>
		<g>
			<polygon fill="#C41010" points="140.92,98.134 140.798,98.134 140.712,98.342 140.92,98.255 			"/>
		</g>
		<g>
			<polygon fill="#C41010" points="144.75,94.304 144.872,94.304 144.958,94.097 144.75,94.181 			"/>
		</g>
		<g>
			<polygon fill="#C41010" points="144.75,94.181 144.457,94.304 144.75,94.304 			"/>
		</g>
		<g>
			<polygon fill="#C41010" points="140.92,98.255 141.216,98.134 140.92,98.134 			"/>
		</g>
		<g>
			<polygon fill="#C41010" points="140.798,98.134 140.92,98.134 140.92,97.84 			"/>
		</g>
		<g>
			<polygon fill="#C41010" points="144.872,94.304 144.75,94.304 144.75,94.6 			"/>
		</g>
		<g>
			<polygon fill="#C41010" points="144.507,95.183 144.75,94.6 144.75,94.304 144.457,94.304 143.871,94.546 			"/>
		</g>
		<g>
			<polygon fill="#C41010" points="141.163,97.254 140.92,97.84 140.92,98.134 141.216,98.134 141.8,97.892 			"/>
		</g>
		<g>
			<polygon fill="#C41010" points="141.334,96.839 141.163,97.254 141.8,97.892 142.213,97.719 141.955,97.097 			"/>
		</g>
		<g>
			<polygon fill="#C41010" points="144.337,95.596 144.507,95.183 143.871,94.546 143.456,94.717 143.713,95.34 			"/>
		</g>
		<g>
			<polygon fill="#C41010" points="141.955,97.097 142.213,97.719 142.835,97.462 			"/>
		</g>
		<g>
			<polygon fill="#C41010" points="143.713,95.34 143.456,94.717 142.835,94.975 			"/>
		</g>
		<g>
			<polygon fill="#C41010" points="144.079,96.219 144.337,95.596 143.713,95.34 			"/>
		</g>
		<g>
			<polygon fill="#C41010" points="141.591,96.219 141.334,96.839 141.955,97.097 			"/>
		</g>
		<g>
			<polygon fill="#C41010" points="142.835,94.975 141.956,95.34 141.591,96.219 141.955,97.097 142.835,97.462 143.715,97.099 
				144.079,96.219 143.713,95.34 			"/>
		</g>
		<g>
			<path fill="#358AC9" d="M159.647,81.337l-2.166-2.166l-13.183,13.182V62.064h-3.063v31.933c-1.139,0.664-1.916,1.884-1.916,3.298
				c0,2.115,1.716,3.83,3.83,3.83c2.115,0,3.83-1.714,3.83-3.83c0-0.92-0.338-1.753-0.878-2.413L159.647,81.337z"/>
		</g>
	</g>
	<g>
		<g>
			<path fill="#66806C" d="M174.462,40.665c0,0,8.71,4.691,15.319,12.254"/>
			<path fill="#FFFFFF" d="M189.782,54.834c-0.534,0-1.064-0.221-1.442-0.656c-6.309-7.219-14.7-11.783-14.785-11.828
				c-0.931-0.502-1.279-1.663-0.777-2.594c0.501-0.931,1.664-1.278,2.594-0.778c0.368,0.198,9.093,4.945,15.852,12.681
				c0.695,0.796,0.614,2.004-0.182,2.702C190.678,54.679,190.229,54.834,189.782,54.834z"/>
		</g>
		<g>
			<path fill="#FFFFFF" d="M204.716,115.342c-0.214,0-0.431-0.037-0.645-0.113c-0.996-0.355-1.514-1.452-1.157-2.448
				c0.037-0.104,3.774-10.93,1.063-26.991c-2.781-16.487-11.344-26.54-11.431-26.639c-0.691-0.8-0.604-2.009,0.195-2.702
				c0.799-0.692,2.01-0.603,2.7,0.196c0.382,0.44,9.354,10.974,12.313,28.507c2.888,17.115-1.064,28.446-1.235,28.92
				C206.239,114.854,205.502,115.342,204.716,115.342z"/>
		</g>
	</g>
	<g>
		<polygon fill="#DDE9EF" points="58.977,26.044 55.165,28.56 51.081,26.517 50.807,21.958 54.619,19.442 58.704,21.484 		"/>
	</g>
	<g>
		<polygon fill="#DDE9EF" points="255.533,51.799 252.945,53.507 250.172,52.121 249.987,49.026 252.574,47.318 255.349,48.704 		
			"/>
	</g>
	<g>
		<polygon fill="#DDE9EF" points="75.364,28.986 73.37,25.532 75.364,22.08 79.352,22.08 81.347,25.532 79.352,28.986 		"/>
	</g>
	<g>
		<polygon fill="#DDE9EF" points="28.473,155.269 26.662,149.694 31.404,146.251 36.144,149.694 34.333,155.269 		"/>
	</g>
	<g>
		<polygon fill="#DDE9EF" points="50.725,158.516 52.682,162.481 57.057,163.117 53.891,166.203 54.638,170.561 50.725,168.503 
			46.812,170.561 47.559,166.203 44.393,163.117 48.769,162.481 		"/>
	</g>
	<g>
		<polygon fill="#DDE9EF" points="256.314,68.974 258.173,72.738 262.327,73.34 259.32,76.271 260.029,80.409 256.314,78.455 
			252.601,80.409 253.31,76.271 250.303,73.34 254.458,72.738 		"/>
	</g>
	<g>
		<polygon fill="#DDE9EF" points="201.327,10.084 202.273,12 204.387,12.307 202.856,13.797 203.219,15.903 201.327,14.909 
			199.438,15.903 199.8,13.797 198.269,12.307 200.384,12 		"/>
	</g>
	<g>
		<g>
			
				<rect x="56.658" y="55.53" transform="matrix(0.8944 0.4472 -0.4472 0.8944 32.2741 -21.8266)" fill="#358AC9" width="11.417" height="3.829"/>
		</g>
		<g>
			
				<rect x="49.458" y="75.187" transform="matrix(0.9751 0.2216 -0.2216 0.9751 18.4609 -10.3204)" fill="#358AC9" width="11.52" height="3.829"/>
		</g>
		<g>
			<rect x="47.559" y="95.867" fill="#358AC9" width="11.233" height="3.831"/>
		</g>
	</g>
	<g>
		<g>
			
				<rect x="169.976" y="3.756" transform="matrix(0.924 0.3824 -0.3824 0.924 16.8021 -64.9962)" fill="#358AC9" width="3.83" height="12.019"/>
		</g>
		<g>
			
				<rect x="188.741" y="13.624" transform="matrix(0.832 0.5547 -0.5547 0.832 42.646 -102.5462)" fill="#358AC9" width="3.83" height="11.046"/>
		</g>
		<g>
			
				<rect x="205.209" y="27.078" transform="matrix(0.6886 0.7252 -0.7252 0.6886 87.9705 -140.1216)" fill="#358AC9" width="3.829" height="10.564"/>
		</g>
	</g>
</g>
</svg>
