<?xml version="1.0" encoding="utf-8"?>
<!-- Generator: Adobe Illustrator 15.0.0, SVG Export Plug-In . SVG Version: 6.00 Build 0)  -->
<!DOCTYPE svg PUBLIC "-//W3C//DTD SVG 1.1//EN" "http://www.w3.org/Graphics/SVG/1.1/DTD/svg11.dtd">
<svg version="1.1" id="Layer_1" xmlns="http://www.w3.org/2000/svg" xmlns:xlink="http://www.w3.org/1999/xlink" x="0px" y="0px"
	 width="121.779px" height="80.5px" viewBox="0 0 121.779 80.5" enable-background="new 0 0 121.779 80.5" xml:space="preserve">
<g>
	<g>
		<g>
			<path fill="#FFFFFF" d="M97.823,32.855c-1.536,0-3.056,0.148-4.548,0.439C92.597,14.957,77.462,0.25,58.959,0.25
				c-17.012,0-31.409,12.589-33.933,29.135C11.306,29.722,0.25,40.988,0.25,54.781c0,14.009,11.398,25.404,25.401,25.404h21.255
				c1.608,0,2.91-1.305,2.91-2.91s-1.301-2.914-2.91-2.914H25.651c-10.794,0-19.583-8.777-19.583-19.58
				c0-10.799,8.788-19.583,19.583-19.583c0.534,0,1.091,0.027,1.716,0.078l2.953,0.256l0.199-2.955
				C31.554,17.714,44.048,6.068,58.959,6.068c15.729,0,28.524,12.794,28.524,28.519c0,0.722-0.038,1.492-0.113,2.362l-0.377,4.642
				l4.337-1.697c2.085-0.808,4.269-1.223,6.498-1.223c9.854,0,17.877,8.022,17.877,17.877S107.683,74.43,97.828,74.43
				c-0.259,0-7.996-0.016-15.7-0.037c-7.646-0.017-15.259-0.031-15.518-0.031c-1.809,0-2.756-0.868-2.811-2.588V40.368l3.154,3.75
				c1.035,1.229,2.877,1.385,4.102,0.351c1.229-1.033,1.385-2.871,0.351-4.101l-6.997-8.313c-0.883-1.045-2.149-1.646-3.475-1.646
				c-1.328,0-2.593,0.601-3.477,1.646l-6.996,8.313c-1.037,1.229-0.878,3.065,0.351,4.101c0.547,0.458,1.212,0.686,1.875,0.686
				c0.827,0,1.65-0.352,2.226-1.035l3.065-3.642v31.325c0,3.367,2.301,8.384,8.631,8.384c0.259,0,7.866,0.017,15.507,0.026
				c7.715,0.017,15.452,0.038,15.706,0.038c13.076,0,23.706-10.631,23.706-23.701C121.529,43.482,110.899,32.855,97.823,32.855
				L97.823,32.855z"/>
			<path fill="#FFFFFF" d="M97.822,80.5l-15.707-0.038c-5.829-0.008-11.639-0.019-14.181-0.023l-1.325-0.003
				c-6.516,0-8.881-5.163-8.881-8.634v-30.64l-2.624,3.118c-0.601,0.714-1.482,1.124-2.417,1.124c-0.74,0-1.463-0.265-2.036-0.744
				c-0.646-0.544-1.041-1.307-1.113-2.147c-0.072-0.842,0.188-1.66,0.732-2.306l6.996-8.313c0.933-1.103,2.269-1.735,3.668-1.735
				c1.398,0,2.734,0.632,3.666,1.735l6.997,8.313c0.543,0.646,0.803,1.465,0.73,2.307c-0.071,0.842-0.466,1.604-1.111,2.146
				c-0.567,0.479-1.29,0.743-2.034,0.743c-0.937,0-1.818-0.41-2.42-1.124l-2.713-3.226v30.72c0.05,1.57,0.888,2.338,2.561,2.338
				c0.259,0,7.872,0.015,15.519,0.031c7.703,0.021,15.44,0.037,15.699,0.037c9.72,0,17.627-7.909,17.627-17.632
				c0-9.72-7.907-17.627-17.627-17.627c-2.187,0-4.343,0.406-6.407,1.206l-4.709,1.843l0.409-5.041
				c0.075-0.876,0.112-1.642,0.112-2.342C87.233,19,74.55,6.318,58.959,6.318c-14.781,0-27.164,11.542-28.19,26.277l-0.216,3.208
				l-3.207-0.278c-0.644-0.052-1.183-0.077-1.694-0.077c-10.66,0-19.333,8.673-19.333,19.333c0,10.658,8.673,19.33,19.333,19.33
				h21.255c1.743,0,3.16,1.419,3.16,3.164c0,1.742-1.417,3.16-3.16,3.16H25.651C11.507,80.436,0,68.927,0,54.781
				c0-13.732,11.111-25.19,24.812-25.641C27.451,12.512,42.094,0,58.959,0c8.999,0,17.527,3.451,24.017,9.716
				c6.402,6.182,10.138,14.439,10.538,23.279c1.418-0.259,2.866-0.39,4.31-0.39c6.391,0,12.404,2.493,16.934,7.02
				c4.528,4.527,7.021,10.537,7.021,16.924C121.778,69.756,111.031,80.5,97.822,80.5z M58.228,39.792v32.01
				c0,3.27,2.232,8.134,8.381,8.134l1.326,0.003c2.541,0.005,8.352,0.016,14.181,0.023L97.822,80
				c12.934,0,23.456-10.521,23.456-23.451c0-6.253-2.441-12.138-6.875-16.57c-4.435-4.433-10.323-6.874-16.58-6.874
				c-1.508,0-3.022,0.146-4.5,0.435l-0.287,0.056l-0.011-0.292C92.345,14.909,77.382,0.5,58.959,0.5
				c-16.689,0-31.171,12.434-33.686,28.922l-0.032,0.207l-0.209,0.005C11.505,29.967,0.5,41.248,0.5,54.781
				c0,13.87,11.283,25.154,25.151,25.154h21.255c1.467,0,2.66-1.193,2.66-2.66c0-1.469-1.193-2.664-2.66-2.664H25.651
				c-10.936,0-19.833-8.896-19.833-19.83c0-10.936,8.897-19.833,19.833-19.833c0.526,0,1.077,0.025,1.736,0.079l2.701,0.234
				l0.182-2.701C31.314,17.564,43.916,5.818,58.959,5.818c15.866,0,28.774,12.906,28.774,28.769c0,0.715-0.037,1.495-0.114,2.384
				l-0.345,4.241l3.965-1.551c2.123-0.823,4.34-1.24,6.589-1.24c9.995,0,18.127,8.132,18.127,18.127
				c0,9.998-8.132,18.132-18.127,18.132c-0.259,0-7.996-0.016-15.701-0.037c-7.645-0.017-15.258-0.031-15.517-0.031
				c-1.943,0-3.002-0.979-3.061-2.83V39.683l3.596,4.274c0.506,0.602,1.248,0.946,2.037,0.946c0.627,0,1.234-0.223,1.712-0.626
				c0.543-0.456,0.875-1.098,0.936-1.807c0.061-0.708-0.158-1.397-0.615-1.941l-6.997-8.313c-0.835-0.99-2.032-1.557-3.283-1.557
				c-1.251,0-2.449,0.568-3.286,1.558l-6.996,8.313c-0.458,0.543-0.677,1.232-0.617,1.94c0.061,0.708,0.394,1.35,0.937,1.808
				c0.482,0.404,1.091,0.627,1.714,0.627c0.787,0,1.528-0.345,2.034-0.946L58.228,39.792z"/>
		</g>
	</g>
</g>
</svg>
