<?xml version="1.0" encoding="utf-8"?>
<!-- Generator: Adobe Illustrator 15.0.0, SVG Export Plug-In . SVG Version: 6.00 Build 0)  -->
<!DOCTYPE svg PUBLIC "-//W3C//DTD SVG 1.1//EN" "http://www.w3.org/Graphics/SVG/1.1/DTD/svg11.dtd">
<svg version="1.1" id="Layer_1" xmlns="http://www.w3.org/2000/svg" xmlns:xlink="http://www.w3.org/1999/xlink" x="0px" y="0px"
	 width="169.177px" height="36px" viewBox="0 0 169.177 36" enable-background="new 0 0 169.177 36" xml:space="preserve">
<g>
	<g>
		<path fill="#00AFEE" d="M3.317,26.2c-1.612,0-2.263-0.465-2.418-0.588C0.496,25.302,0,24.65,0,23.44V7.969
			c0-0.806,0.031-1.736,0.744-2.542c0.31-0.341,1.023-0.93,2.325-0.93h8.496c3.007,0,5.054,1.147,6.356,2.573
			c2.108,2.326,2.202,5.426,2.202,8.031c0,2.356-0.155,6.077-1.923,8.434c-0.868,1.146-2.666,2.666-6.077,2.666H3.317z
			 M4.093,21.456c0,0.436-0.031,0.838,0.279,1.18c0.279,0.309,0.682,0.309,1.054,0.309h4.713c2.264,0,3.752-0.496,4.682-2.015
			c0.527-0.837,1.085-2.45,1.085-6.139c0-1.86-0.155-4.031-1.52-5.457c-1.24-1.302-3.193-1.581-4.651-1.581H5.488
			c-0.248,0-0.683,0-0.961,0.217c-0.248,0.186-0.434,0.62-0.434,1.085V21.456z"/>
		<path fill="#00AFEE" d="M28.366,26.2c-1.674,0-3.659-0.154-5.023-2.076c-1.085-1.551-1.178-3.814-1.178-5.984
			c0-3.07,0.155-5.333,1.954-6.884c1.798-1.55,4.589-1.55,6.139-1.55c1.923,0,3.907,0.093,5.426,1.054
			c1.922,1.209,2.326,3.255,2.326,5.333c0,0.837-0.093,1.798-0.775,2.48c-0.496,0.496-1.116,0.62-1.768,0.62h-9.55
			c0,0.714,0.093,1.767,0.217,2.263c0.465,1.768,1.984,1.954,3.318,1.954h8.03v2.79H28.366z M33.451,16.403
			c0.713,0,0.806-0.527,0.806-0.961c0-1.023-0.527-1.799-1.054-2.202c-0.899-0.682-2.078-0.744-3.101-0.744
			c-0.961,0-2.45-0.031-3.442,1.085c-0.744,0.837-0.713,1.736-0.744,2.821H33.451z"/>
		<path fill="#00AFEE" d="M43.679,31.472h-3.627V12.31c0-1.085,0.527-1.705,0.93-2.016c0.62-0.465,1.426-0.527,2.046-0.527h5.736
			c1.055,0,3.256,0.155,4.837,1.798c1.675,1.736,1.736,4.279,1.736,6.077c0,2.17-0.124,4.527-1.302,6.202
			c-1.551,2.232-4.093,2.355-5.768,2.355h-4.589V31.472z M47.803,23.41c1.798,0,2.697-0.868,3.101-1.519
			c0.341-0.496,0.682-1.488,0.682-3.938c0-2.232-0.248-3.101-0.434-3.535c-0.465-1.054-1.55-1.86-3.163-1.86h-3.566
			c-0.155,0-0.372,0.124-0.496,0.217c-0.186,0.187-0.248,0.372-0.248,0.559V23.41H47.803z"/>
		<path fill="#00AFEE" d="M57.38,4.497h3.628V26.2H57.38V4.497z"/>
		<path fill="#00AFEE" d="M78.432,11.318c1.892,1.768,2.108,4.868,2.108,6.605c0,3.473-0.899,5.549-2.108,6.697
			c-1.768,1.643-4.744,1.767-6.635,1.767c-1.954,0-4.837-0.124-6.635-1.767c-1.953-1.799-2.108-4.9-2.108-6.574
			c0-1.86,0.217-4.96,2.108-6.728c1.798-1.674,4.682-1.736,6.635-1.736S76.633,9.644,78.432,11.318z M67.858,22.231
			c1.055,1.209,2.636,1.365,3.938,1.365c1.364,0,2.822-0.156,3.907-1.365s1.085-2.79,1.085-4.217c0-1.208,0.093-3.069-1.054-4.34
			c-1.055-1.178-2.636-1.302-3.938-1.302c-1.178,0-2.946,0.124-3.969,1.302s-1.023,3.287-1.023,4.34
			C66.805,19.38,66.835,21.054,67.858,22.231z"/>
		<path fill="#00AFEE" d="M89.094,31.503h-3.689l2.512-5.364L80.599,9.768h3.752l5.271,12.62L95.202,9.83h3.69L89.094,31.503z"/>
	</g>
	<g>
		<path fill="#00AFEE" d="M169.177,30c0,3.313-2.687,6-6,6h-55c-3.313,0-6-2.687-6-6V5c0-3.313,2.687-5,6-5h55c3.313,0,6,1.687,6,5
			V30z"/>
		<g>
			<path fill="#FFFFFF" d="M115.651,6.837c0.775-1.829,1.613-2.449,3.566-2.449c1.86,0,2.79,0.62,3.565,2.449l8.186,19.503h-4.31
				l-2.232-5.488h-10.449l-2.201,5.488h-4.311L115.651,6.837z M115.032,17.938h8.34l-3.534-8.837
				c-0.124-0.31-0.341-0.899-0.62-0.899s-0.496,0.59-0.62,0.899L115.032,17.938z"/>
			<path fill="#FFFFFF" d="M134.902,31.611h-3.628V12.449c0-1.085,0.527-1.705,0.93-2.016c0.621-0.465,1.427-0.527,2.047-0.527
				h5.736c1.054,0,3.256,0.155,4.837,1.799c1.674,1.736,1.736,4.279,1.736,6.077c0,2.171-0.124,4.526-1.303,6.201
				c-1.55,2.232-4.093,2.356-5.767,2.356h-4.589V31.611z M139.026,23.549c1.798,0,2.697-0.867,3.1-1.519
				c0.342-0.496,0.683-1.488,0.683-3.938c0-2.232-0.248-3.1-0.435-3.534c-0.465-1.054-1.55-1.86-3.162-1.86h-3.565
				c-0.155,0-0.372,0.124-0.496,0.217c-0.187,0.187-0.248,0.372-0.248,0.559v10.076H139.026z"/>
			<path fill="#FFFFFF" d="M152.23,31.611h-3.628V12.449c0-1.085,0.527-1.705,0.931-2.016c0.62-0.465,1.427-0.527,2.046-0.527h5.736
				c1.055,0,3.256,0.155,4.837,1.799c1.675,1.736,1.736,4.279,1.736,6.077c0,2.171-0.124,4.526-1.302,6.201
				c-1.551,2.232-4.093,2.356-5.768,2.356h-4.589V31.611z M156.354,23.549c1.799,0,2.697-0.867,3.101-1.519
				c0.341-0.496,0.683-1.488,0.683-3.938c0-2.232-0.248-3.1-0.435-3.534c-0.465-1.054-1.55-1.86-3.163-1.86h-3.565
				c-0.155,0-0.372,0.124-0.496,0.217c-0.186,0.187-0.248,0.372-0.248,0.559v10.076H156.354z"/>
		</g>
	</g>
</g>
<g>
	<text transform="matrix(1 0 0 1 -1.8604 96.6836)" fill="#00AFEE" font-family="'MagistralC-Bold'" font-size="31">Deploy</text>
	<g>
		<path fill="#00AFEE" d="M169.177,98.517c0,3.313-2.687,6-6,6h-55c-3.313,0-6-2.687-6-6v-25c0-3.313,2.687-5,6-5h55
			c3.313,0,6,1.687,6,5V98.517z"/>
		<g>
			<path fill="#FFFFFF" d="M115.651,75.354c0.775-1.829,1.613-2.449,3.566-2.449c1.86,0,2.79,0.62,3.565,2.449l8.186,19.503h-4.31
				l-2.232-5.488h-10.449l-2.201,5.488h-4.311L115.651,75.354z M115.032,86.454h8.34l-3.534-8.837
				c-0.124-0.31-0.341-0.899-0.62-0.899s-0.496,0.59-0.62,0.899L115.032,86.454z"/>
			<path fill="#FFFFFF" d="M134.902,100.128h-3.628V80.966c0-1.085,0.527-1.705,0.93-2.016c0.621-0.465,1.427-0.527,2.047-0.527
				h5.736c1.054,0,3.256,0.155,4.837,1.799c1.674,1.736,1.736,4.279,1.736,6.077c0,2.171-0.124,4.526-1.303,6.201
				c-1.55,2.232-4.093,2.356-5.767,2.356h-4.589V100.128z M139.026,92.065c1.798,0,2.697-0.867,3.1-1.519
				c0.342-0.496,0.683-1.488,0.683-3.938c0-2.232-0.248-3.1-0.435-3.534c-0.465-1.054-1.55-1.86-3.162-1.86h-3.565
				c-0.155,0-0.372,0.124-0.496,0.217c-0.187,0.187-0.248,0.372-0.248,0.559v10.076H139.026z"/>
			<path fill="#FFFFFF" d="M152.23,100.128h-3.628V80.966c0-1.085,0.527-1.705,0.931-2.016c0.62-0.465,1.427-0.527,2.046-0.527
				h5.736c1.055,0,3.256,0.155,4.837,1.799c1.675,1.736,1.736,4.279,1.736,6.077c0,2.171-0.124,4.526-1.302,6.201
				c-1.551,2.232-4.093,2.356-5.768,2.356h-4.589V100.128z M156.354,92.065c1.799,0,2.697-0.867,3.101-1.519
				c0.341-0.496,0.683-1.488,0.683-3.938c0-2.232-0.248-3.1-0.435-3.534c-0.465-1.054-1.55-1.86-3.163-1.86h-3.565
				c-0.155,0-0.372,0.124-0.496,0.217c-0.186,0.187-0.248,0.372-0.248,0.559v10.076H156.354z"/>
		</g>
	</g>
</g>
</svg>
