<?xml version="1.0" encoding="utf-8"?>
<!-- Generator: Adobe Illustrator 15.0.0, SVG Export Plug-In . SVG Version: 6.00 Build 0)  -->
<!DOCTYPE svg PUBLIC "-//W3C//DTD SVG 1.1//EN" "http://www.w3.org/Graphics/SVG/1.1/DTD/svg11.dtd">
<svg version="1.1" id="Layer_1" xmlns="http://www.w3.org/2000/svg" xmlns:xlink="http://www.w3.org/1999/xlink" x="0px" y="0px"
	 width="248px" height="206.413px" viewBox="0 0 248 206.413" enable-background="new 0 0 248 206.413" xml:space="preserve">
<g>
	<g>
		<linearGradient id="SVGID_1_" gradientUnits="userSpaceOnUse" x1="-1638.6182" y1="71.3965" x2="-1559.5409" y2="121.2868">
			<stop  offset="0" style="stop-color:#FFFFFF"/>
			<stop  offset="1" style="stop-color:#EBEBEB"/>
		</linearGradient>
		<polygon fill="url(#SVGID_1_)" points="-1623.863,69.423 -1559.988,111.298 -1559.988,130.048 -1653.488,73.298 		"/>
		<g>
			<polygon fill="#DDE8EC" stroke="#C5CACE" stroke-width="2" stroke-miterlimit="10" points="-1458.955,71.461 -1579.455,77.461 
				-1575.455,61.461 -1455.955,54.461 			"/>
			<polygon fill="#DDE8EC" points="-1605.455,96.961 -1581.955,96.961 -1557.455,-4.539 -1582.955,-4.539 			"/>
			<polygon fill="#C8D9E1" points="-1593.455,43.461 -1581.955,95.961 -1604.955,95.961 			"/>
			<polygon fill="#C7D8E0" points="-1588.455,20.461 -1564.955,8.961 -1574.455,8.961 -1574.455,-4.039 -1583.455,-4.039 			"/>
			<polygon fill="#DDE8EC" points="-1463.955,86.961 -1438.455,86.961 -1419.455,0.461 -1444.955,0.461 			"/>
			<path fill="#C8D9E1" d="M-1444.455,1.961l23-1.5l-1,13c0,0-29,12.5-27.5,11S-1444.455,1.961-1444.455,1.961z"/>
			<polygon fill="none" stroke="#C5CACE" stroke-width="2" stroke-miterlimit="10" points="-1605.455,96.961 -1581.955,96.961 
				-1557.455,-4.539 -1582.955,-4.539 			"/>
			<polygon fill="none" stroke="#C5CACE" stroke-width="2" stroke-miterlimit="10" points="-1463.955,86.961 -1438.455,85.961 
				-1419.455,0.461 -1444.955,0.461 			"/>
			<polygon fill="#F1F2F4" stroke="#C5CACE" stroke-width="2" stroke-miterlimit="10" points="-1397.488,45.465 -1421.988,51.465 
				-1421.955,-1.539 -1397.455,-1.539 			"/>
			<polygon fill="#F1F2F4" stroke="#C5CACE" stroke-width="2" stroke-miterlimit="10" points="-1438.955,107.961 -1537.455,113.961 
				-1537.455,97.461 -1438.955,91.461 			"/>
			<polygon fill="#F1F2F4" stroke="#C5CACE" stroke-width="2" stroke-miterlimit="10" points="-1536.955,128.961 -1559.455,128.961 
				-1565.455,7.961 -1539.955,6.961 			"/>
			<g>
				<g>
					<polyline fill="#FFFFFF" stroke="#67B760" stroke-width="2" stroke-miterlimit="10" points="-1533.59,-34.662 
						-1562.674,-18.067 -1533.924,5.879 					"/>
					<polyline fill="#FFFFFF" stroke="#67B760" stroke-width="2" stroke-miterlimit="10" points="-1504.215,-36.412 
						-1528.59,-19.912 -1499.393,3.994 					"/>
					<polyline fill="#FFFFFF" stroke="#67B760" stroke-width="2" stroke-miterlimit="10" points="-1469.611,-37.85 
						-1493.611,-22.726 -1464.111,1.978 					"/>
					<polyline fill="none" stroke="#67B760" stroke-width="2" stroke-miterlimit="10" points="-1434.215,-39.787 -1458.34,-24.162 
						-1429.455,-0.039 					"/>
					<polyline fill="none" stroke="#67B760" stroke-width="2" stroke-miterlimit="10" points="-1402.34,-39.412 -1423.049,-26.002 
						-1393.715,-1.537 					"/>
					<polygon fill="#FFFFFF" points="-1595.715,-31.662 -1579.715,-4.287 -1574.049,-4.287 -1574.049,-17.954 					"/>
					<g>
						<polygon fill="#FFFFFF" points="-1573.715,-17.961 -1595.171,-31.615 -1404.985,-41.397 -1384.715,-28.366 -1384.715,-2.356 
							-1573.715,8.529 						"/>
						<g>
							<path fill="#C5CACE" d="M-1405.255-40.382l19.54,12.562V-3.3l-187,10.77v-24.881v-1.098l-0.926-0.589l-18.351-11.678
								L-1405.255-40.382 M-1404.715-42.412l-192,9.875v1.125l22,14v27l191-11v-27.5L-1404.715-42.412L-1404.715-42.412z"/>
						</g>
					</g>
					
						<line fill="#FFFFFF" stroke="#C5CACE" stroke-width="2" stroke-miterlimit="10" x1="-1574.715" y1="-17.412" x2="-1384.549" y2="-28.412"/>
					
						<line fill="#FFFFFF" stroke="#C5CACE" stroke-width="2" stroke-miterlimit="10" x1="-1595.756" y1="-32.662" x2="-1595.756" y2="-3.662"/>
					
						<line fill="#FFFFFF" stroke="#C5CACE" stroke-width="2" stroke-miterlimit="10" x1="-1596.465" y1="-4.662" x2="-1573.674" y2="-4.662"/>
				</g>
				<g>
					<polyline fill="none" stroke="#67B760" stroke-width="2" stroke-miterlimit="10" points="-1533.59,-34.662 -1562.674,-18.067 
						-1533.924,5.879 					"/>
					<polyline fill="none" stroke="#67B760" stroke-width="2" stroke-miterlimit="10" points="-1504.215,-36.412 -1528.59,-19.912 
						-1499.393,3.994 					"/>
					<polyline fill="none" stroke="#67B760" stroke-width="2" stroke-miterlimit="10" points="-1469.611,-37.85 -1493.611,-22.726 
						-1464.111,1.978 					"/>
					<polyline fill="none" stroke="#67B760" stroke-width="2" stroke-miterlimit="10" points="-1434.215,-39.787 -1458.34,-24.162 
						-1429.455,-0.039 					"/>
					<polyline fill="none" stroke="#67B760" stroke-width="2" stroke-miterlimit="10" points="-1402.34,-39.412 -1423.049,-26.002 
						-1393.715,-1.537 					"/>
					<polygon fill="#E9E9E9" points="-1595.715,-31.662 -1579.715,-4.287 -1574.049,-4.287 -1574.049,-17.954 					"/>
					<g>
						<g>
							<path fill="#C5CACE" d="M-1405.255-40.382l19.54,12.562V-3.3l-187,10.77v-24.881v-1.098l-0.926-0.589l-18.351-11.678
								L-1405.255-40.382 M-1404.715-42.412l-192,9.875v1.125l22,14v27l191-11v-27.5L-1404.715-42.412L-1404.715-42.412z"/>
						</g>
					</g>
					
						<line fill="#FFFFFF" stroke="#C5CACE" stroke-width="2" stroke-miterlimit="10" x1="-1574.715" y1="-17.412" x2="-1384.549" y2="-28.412"/>
					
						<line fill="none" stroke="#C5CACE" stroke-width="2" stroke-miterlimit="10" x1="-1595.756" y1="-32.662" x2="-1595.756" y2="-3.662"/>
					
						<line fill="none" stroke="#C5CACE" stroke-width="2" stroke-miterlimit="10" x1="-1596.465" y1="-4.662" x2="-1573.674" y2="-4.662"/>
				</g>
			</g>
		</g>
		<g>
			<g>
				<polygon fill="#DCE8E6" points="-1452.967,170.978 -1463.467,156.478 -1432.633,54.478 -1420.967,65.978 				"/>
				<polygon fill="#EEF1F6" points="-1351.467,150.478 -1452.967,170.978 -1420.133,66.978 -1314.967,40.978 				"/>
				<g>
					<g>
						<path fill="#3487C9" d="M-1326.544,29.457l9.926,11.454l-33.617,107.096l-101.903,19.808l-9.084-12.563l30.749-99.691
							L-1326.544,29.457 M-1325.133,24.978l-108.5,27.25l-32,103.75l11.75,16.25l106.75-20.75l35-111.5L-1325.133,24.978
							L-1325.133,24.978z"/>
					</g>
				</g>
				
					<line fill="none" stroke="#3487C9" stroke-width="4" stroke-miterlimit="10" x1="-1313.633" y1="39.978" x2="-1420.133" y2="66.978"/>
				
					<line fill="none" stroke="#3487C9" stroke-width="4" stroke-miterlimit="10" x1="-1420.133" y1="66.978" x2="-1453.133" y2="169.478"/>
				
					<line fill="none" stroke="#3487C9" stroke-width="4" stroke-miterlimit="10" x1="-1420.133" y1="66.978" x2="-1432.633" y2="54.478"/>
				<polygon fill="#FFFBFC" points="-1372.633,71.478 -1415.383,109.228 -1280.633,226.978 -1269.633,216.478 				"/>
				<path fill="#F1F2F4" d="M-1411.383,106.478l133,116.75l-5,9.25l-145.75-84.25
					C-1429.133,148.228-1435.383,128.228-1411.383,106.478z"/>
				<path fill="#F1F2F4" d="M-1376.133,74.478c0,0,29-17.75,36.5-8.5l75.75,148l-9.5,3.75L-1376.133,74.478z"/>
				<path fill="none" stroke="#C5CCD2" stroke-width="4" stroke-miterlimit="10" d="M-1285.633,173.228
					c-16.25,1.75-34.75,22.25-38.5,35.5"/>
				<path fill="none" stroke="#C5CCD2" stroke-width="4" stroke-miterlimit="10" d="M-1306.383,133.728
					c-17.25,2-48.25,24-55.5,52.75"/>
				<path fill="none" stroke="#C5CCD2" stroke-width="4" stroke-miterlimit="10" d="M-1323.633,97.228
					c-24.75,0.25-68,35.25-72.25,68.75"/>
				<g>
					<g>
						<path fill="#3487C9" d="M-1347.767,64.528c4.034,0,5.62,1.432,5.973,1.817l75.152,147.485l-16.4,16.4l-143.226-82.649
							c-5.566-3.822-0.64-17.008,6.744-28.431c13.459-20.823,38.735-41.687,55.396-49.828
							C-1357.616,66.141-1352.112,64.528-1347.767,64.528 M-1347.767,60.528c-4.174,0-10.03,1.249-18.116,5.2
							c-18.498,9.038-43.75,30.75-57,51.25c-6.617,10.236-15,27.75-5.5,34l146,84.25l20.625-20.625l-76.625-150.375
							C-1338.383,64.228-1340.584,60.528-1347.767,60.528L-1347.767,60.528z"/>
					</g>
				</g>
				<g>
					<path fill="#FFFFFF" d="M-1280.539,233.492c-0.625,0-1.467-0.107-1.934-0.62c-0.684-0.75-0.594-2.471,0.233-4.49
						c1.049-2.561,3.183-5.425,5.854-7.858c3.692-3.365,7.981-5.539,10.928-5.539c0.625,0,1.467,0.107,1.934,0.619
						c1.381,1.516-0.305,7.081-6.089,12.35C-1273.304,231.317-1277.593,233.492-1280.539,233.492L-1280.539,233.492z"/>
					<g>
						<path fill="#3487C9" d="M-1265.457,216.984c0.177,0,0.309,0.013,0.403,0.027c0.122,1.24-1.272,5.242-5.906,9.464
							c-3.803,3.465-7.551,5.017-9.579,5.017c-0.177,0-0.309-0.013-0.403-0.028c-0.122-1.239,1.272-5.242,5.904-9.463
							C-1271.235,218.535-1267.486,216.984-1265.457,216.984 M-1265.457,212.984c-3.342,0-8.047,2.207-12.275,6.061
							c-6.049,5.512-8.832,12.307-6.219,15.174c0.787,0.863,1.973,1.273,3.412,1.273c3.342,0,8.045-2.207,12.273-6.061
							c6.051-5.512,8.834-12.306,6.221-15.175C-1262.832,213.393-1264.018,212.984-1265.457,212.984L-1265.457,212.984z"/>
					</g>
				</g>
			</g>
			<g>
				<path fill="#E8E8E8" d="M-1530.373,149.399l-50-21.333c0,0-11.334-6-8.666,11.333l11.334,58.666l40-18L-1530.373,149.399z"/>
				<polygon fill="#EDF2F6" points="-1486.861,254.547 -1580.373,201.565 -1482.873,146.065 -1391.373,204.065 				"/>
				<polygon fill="#E2E5F6" points="-1582.373,220.065 -1487.873,274.065 -1487.873,255.065 -1582.373,200.065 				"/>
				<g>
					<g>
						<g>
							<path fill="#3487C9" d="M-1482.62,149.617l90.424,54.319v14.707l-94.653,52.124l-93.347-52.109v-15.615L-1482.62,149.617
								 M-1482.527,145.006l-101.668,55.666v20.334l97.334,54.334l98.666-54.334v-19.334L-1482.527,145.006L-1482.527,145.006z"/>
						</g>
						
							<line fill="none" stroke="#3487C9" stroke-width="4" stroke-miterlimit="10" x1="-1582.527" y1="202.006" x2="-1486.945" y2="254.922"/>
						
							<line fill="none" stroke="#3487C9" stroke-width="4" stroke-miterlimit="10" x1="-1389.986" y1="202.797" x2="-1486.945" y2="254.922"/>
						
							<line fill="none" stroke="#3487C9" stroke-width="4" stroke-miterlimit="10" x1="-1486.861" y1="254.547" x2="-1486.861" y2="273.34"/>
					</g>
				</g>
				<path fill="#FFFFFF" d="M-1491.707,43.398h14l28.668,175.333c0,0-46.668,5.333-55.334,3.333S-1491.707,43.398-1491.707,43.398z"
					/>
				<path fill="#F1F2F4" d="M-1486.861,45.548l-12,176c0,0-42.666-3.332-47-19.666l48.334-161.667L-1486.861,45.548z"/>
				<path fill="#F1F2F4" d="M-1480.527,44.881l7.666-3.667l49,161c0,0-5,14.666-30,17L-1480.527,44.881z"/>
				<polygon fill="#C6D8E2" points="-1545.193,206.881 -1566.193,195.547 -1538.527,180.215 				"/>
				<g>
					<path fill="none" stroke="#C5CCD2" stroke-width="4" stroke-miterlimit="10" d="M-1511.049,84.423
						c10.75,9.25,38.75,10.813,52.938,1.125"/>
					<path fill="none" stroke="#C5CCD2" stroke-width="4" stroke-miterlimit="10" d="M-1522.693,127.381
						c15.332,14.667,63.332,14,76.832,0"/>
					<path fill="none" stroke="#C5CCD2" stroke-width="4" stroke-miterlimit="10" d="M-1534.361,166.714
						c10.668,17.667,85,21,99.834-0.5"/>
				</g>
				<g>
					<path fill="#3487C9" d="M-1472.68,43.548l46.952,158.437c-0.669,2.099-4.563,10.152-25.58,15.378
						c-8.914,2.217-19.092,3.388-29.435,3.388c-6.363,0-12.545-0.44-18.376-1.309c-35.349-5.266-42.516-15.163-43.801-17.729
						l46.305-158.166H-1472.68 M-1469.693,39.548h-29.918l-47.5,162.25c0,0,1.811,14.809,47.404,21.601
						c6.033,0.898,12.463,1.353,18.965,1.353c10.383,0,20.951-1.156,30.4-3.506c28.184-7.008,28.73-19.447,28.73-19.447
						L-1469.693,39.548L-1469.693,39.548z"/>
				</g>
				<g>
					<path fill="#FFFFFF" d="M-1484.643,44.017c-7.917,0-12.969-2.971-12.969-5.016c0-2.045,5.052-5.015,12.969-5.015
						s12.969,2.97,12.969,5.015C-1471.674,41.046-1476.726,44.017-1484.643,44.017z"/>
					<path fill="#3487C9" d="M-1484.643,35.985c6.318,0,10.104,2.013,10.883,3.016c-0.778,1.003-4.564,3.016-10.883,3.016
						c-6.317,0-10.104-2.013-10.883-3.016C-1494.746,37.998-1490.959,35.985-1484.643,35.985 M-1484.643,31.985
						c-8.266,0-14.969,3.142-14.969,7.015c0,3.875,6.703,7.016,14.969,7.016c8.268,0,14.969-3.142,14.969-7.016
						C-1469.674,35.127-1476.375,31.985-1484.643,31.985L-1484.643,31.985z"/>
				</g>
			</g>
		</g>
	</g>
	<polygon fill="#DEE7EE" points="-1627.665,122.714 -1630.246,114.769 -1623.488,109.858 -1616.73,114.769 -1619.312,122.714 	"/>
	<polygon fill="#DEE7EE" points="-1668.318,60.215 -1670.628,56.215 -1668.318,52.215 -1663.7,52.215 -1661.391,56.215 
		-1663.7,60.215 	"/>
	<polygon fill="#DEE7EE" points="-1645.453,144.215 -1646.896,141.715 -1645.453,139.215 -1642.567,139.215 -1641.123,141.715 
		-1642.567,144.215 	"/>
	<polygon fill="#DEE7EE" points="-1294.988,75.465 -1299.02,75.447 -1301.02,71.947 -1298.988,68.465 -1294.957,68.483 
		-1292.957,71.983 	"/>
	<polygon fill="#DEE7EE" points="-1324.988,-7.556 -1323.219,-3.971 -1319.262,-3.396 -1322.125,-0.605 -1321.449,3.336 
		-1324.988,1.475 -1328.527,3.336 -1327.852,-0.605 -1330.715,-3.396 -1326.758,-3.971 	"/>
	<polygon fill="#DEE7EE" points="-1264.488,125.89 -1262.701,129.511 -1258.705,130.092 -1261.597,132.91 -1260.914,136.89 
		-1264.488,135.011 -1268.063,136.89 -1267.38,132.91 -1270.271,130.092 -1266.275,129.511 	"/>
	<polygon fill="#DEE7EE" points="-1401.988,-67.506 -1400.525,-64.543 -1397.257,-64.068 -1399.622,-61.763 -1399.063,-58.506 
		-1401.988,-60.044 -1404.913,-58.506 -1404.354,-61.763 -1406.72,-64.068 -1403.451,-64.543 	"/>
</g>
<g>
	<g>
		<g>
			<g>
				<defs>
					<polygon id="SVGID_2_" points="28.154,82.439 66.61,107.65 66.61,118.938 10.318,84.771 					"/>
				</defs>
				<clipPath id="SVGID_3_">
					<use xlink:href="#SVGID_2_"  overflow="visible"/>
				</clipPath>
				<polygon clip-path="url(#SVGID_3_)" fill="#FFFFFF" points="20.021,82.439 15.563,89.504 10.318,86.196 10.318,82.439 				"/>
				<polygon clip-path="url(#SVGID_3_)" fill="#FFFFFF" points="23.35,82.439 17.943,91.006 15.563,89.504 20.021,82.439 				"/>
				<polygon clip-path="url(#SVGID_3_)" fill="#FEFEFE" points="26.678,82.439 20.324,92.508 17.943,91.006 23.35,82.439 				"/>
				<polygon clip-path="url(#SVGID_3_)" fill="#FDFDFD" points="30.005,82.439 22.705,94.01 20.324,92.508 26.678,82.439 				"/>
				<polygon clip-path="url(#SVGID_3_)" fill="#FCFCFC" points="30.411,82.439 32.501,83.757 25.085,95.512 22.705,94.01 
					30.005,82.439 				"/>
				
					<rect x="28.575" y="83.436" transform="matrix(-0.8458 -0.5335 0.5335 -0.8458 7.1164 182.8281)" clip-path="url(#SVGID_3_)" fill="#FBFBFB" width="2.815" height="13.899"/>
				
					<rect x="30.957" y="84.938" transform="matrix(-0.8457 -0.5337 0.5337 -0.8457 10.6921 186.8662)" clip-path="url(#SVGID_3_)" fill="#FAFAFA" width="2.814" height="13.898"/>
				
					<rect x="33.337" y="86.44" transform="matrix(-0.8458 -0.5334 0.5334 -0.8458 14.3163 190.9155)" clip-path="url(#SVGID_3_)" fill="#F9F9F9" width="2.815" height="13.898"/>
				
					<rect x="35.718" y="87.942" transform="matrix(-0.8457 -0.5337 0.5337 -0.8457 17.8767 194.9511)" clip-path="url(#SVGID_3_)" fill="#F8F8F8" width="2.814" height="13.898"/>
				
					<rect x="38.097" y="89.443" transform="matrix(-0.8458 -0.5334 0.5334 -0.8458 21.5016 198.9993)" clip-path="url(#SVGID_3_)" fill="#F7F7F7" width="2.815" height="13.899"/>
				
					<rect x="40.478" y="90.945" transform="matrix(-0.8458 -0.5335 0.5335 -0.8458 25.0789 203.0385)" clip-path="url(#SVGID_3_)" fill="#F6F6F6" width="2.815" height="13.899"/>
				
					<rect x="42.859" y="92.447" transform="matrix(-0.8457 -0.5337 0.5337 -0.8457 28.6523 207.0778)" clip-path="url(#SVGID_3_)" fill="#F4F4F5" width="2.814" height="13.898"/>
				
					<rect x="45.239" y="93.949" transform="matrix(-0.8458 -0.5335 0.5335 -0.8458 32.2645 211.123)" clip-path="url(#SVGID_3_)" fill="#F3F3F4" width="2.815" height="13.898"/>
				
					<rect x="47.62" y="95.451" transform="matrix(-0.8457 -0.5337 0.5337 -0.8457 35.8359 215.1628)" clip-path="url(#SVGID_3_)" fill="#F2F2F3" width="2.814" height="13.898"/>
				
					<rect x="50" y="96.953" transform="matrix(-0.8458 -0.5334 0.5334 -0.8458 39.4659 219.2093)" clip-path="url(#SVGID_3_)" fill="#F1F1F2" width="2.815" height="13.899"/>
				
					<rect x="52.381" y="98.454" transform="matrix(-0.8457 -0.5337 0.5337 -0.8457 43.0197 223.247)" clip-path="url(#SVGID_3_)" fill="#F0F0F1" width="2.814" height="13.898"/>
				
					<rect x="54.76" y="99.956" transform="matrix(-0.8458 -0.5335 0.5335 -0.8458 46.6337 227.2913)" clip-path="url(#SVGID_3_)" fill="#EFEFF0" width="2.815" height="13.898"/>
				
					<rect x="57.141" y="101.458" transform="matrix(-0.8458 -0.5334 0.5334 -0.8458 50.244 231.3348)" clip-path="url(#SVGID_3_)" fill="#EEEEEF" width="2.815" height="13.899"/>
				
					<rect x="59.522" y="102.96" transform="matrix(-0.8457 -0.5337 0.5337 -0.8457 53.7961 235.3744)" clip-path="url(#SVGID_3_)" fill="#EDEDEE" width="2.814" height="13.899"/>
				<polygon clip-path="url(#SVGID_3_)" fill="#ECECED" points="65.827,104.783 66.61,105.277 66.61,108.816 60.792,118.039 
					58.411,116.538 				"/>
				<polygon clip-path="url(#SVGID_3_)" fill="#EBEBEC" points="66.61,114.091 63.553,118.938 62.217,118.938 60.792,118.039 
					66.61,108.816 				"/>
				<polygon clip-path="url(#SVGID_3_)" fill="#EBEBEC" points="63.553,118.938 66.61,114.091 66.61,118.938 				"/>
			</g>
		</g>
		<g>
			<g>
				<polygon fill="#DDE8EC" points="127.438,83.666 54.891,87.278 57.299,77.645 129.244,73.431 				"/>
				<path fill="#C5CACE" d="M54.109,87.92l2.713-10.85l0.441-0.025l72.706-4.259l-2.021,11.458L54.109,87.92z M57.775,78.221
					l-2.104,8.416l71.258-3.548l1.59-9.012L57.775,78.221z"/>
			</g>
			<g>
				<polygon fill="#DDE8EC" points="39.237,99.018 53.386,99.018 68.136,37.91 52.783,37.91 				"/>
			</g>
			<g>
				<polygon fill="#C8D9E1" points="46.462,66.808 53.386,98.416 39.538,98.416 				"/>
			</g>
			<g>
				<polygon fill="#C7D8E0" points="49.472,52.961 63.62,46.038 57.9,46.038 57.9,38.21 52.482,38.21 				"/>
			</g>
			<g>
				<polygon fill="#DDE8EC" points="124.428,92.998 139.78,92.998 151.219,40.92 135.867,40.92 				"/>
			</g>
			<g>
				<path fill="#C8D9E1" d="M136.168,41.823l13.848-0.903l-0.603,7.827c0,0-17.46,7.526-16.557,6.623
					C133.76,54.466,136.168,41.823,136.168,41.823z"/>
			</g>
			<g>
				<path fill="#C5CACE" d="M53.859,99.62H38.487L52.3,37.308H68.9l-0.18,0.744L53.859,99.62z M39.987,98.416h12.924l14.46-59.904
					H53.267L39.987,98.416z"/>
			</g>
			<g>
				<path fill="#C5CACE" d="M123.672,93.629l11.711-53.312h16.587l-11.703,52.661L123.672,93.629z M136.351,41.522l-11.167,50.844
					l14.109-0.554l11.176-50.29H136.351z"/>
			</g>
			<g>
				<polygon fill="#F1F2F4" points="164.444,68.015 149.694,71.627 149.714,39.716 164.465,39.716 				"/>
				<path fill="#C5CACE" d="M149.092,72.394l0.021-33.28h15.955l-0.021,29.373L149.092,72.394z M150.315,40.318l-0.019,30.542
					l13.546-3.317l0.019-27.225H150.315z"/>
			</g>
			<g>
				<polygon fill="#F1F2F4" points="139.479,105.641 80.177,109.253 80.177,99.319 139.479,95.707 				"/>
				<path fill="#C5CACE" d="M79.575,109.893V98.752l60.506-3.686v11.14L79.575,109.893z M80.779,99.886v8.728l58.098-3.539v-8.728
					L80.779,99.886z"/>
			</g>
			<g>
				<polygon fill="#F1F2F4" points="80.478,118.284 66.932,118.284 63.319,45.435 78.672,44.833 				"/>
				<path fill="#C5CACE" d="M81.095,118.886H66.359l-0.029-0.572l-3.643-73.456l16.571-0.65l0.015,0.611L81.095,118.886z
					 M67.504,117.682h12.357l-1.776-72.223l-14.134,0.554L67.504,117.682z"/>
			</g>
			<g>
				<g>
					<g>
						<g>
							<polyline fill="#FFFFFF" points="82.504,19.774 64.994,29.765 82.303,44.182 							"/>
						</g>
						<g>
							<polygon fill="#67B760" points="81.918,44.645 63.941,29.672 82.206,19.251 82.802,20.297 66.046,29.858 82.688,43.719 
															"/>
						</g>
					</g>
					<g>
						<g>
							<polyline fill="#FFFFFF" points="100.189,18.72 85.514,28.654 103.093,43.047 							"/>
						</g>
						<g>
							<polygon fill="#67B760" points="102.711,43.513 84.508,28.608 99.852,18.222 100.526,19.219 86.521,28.7 103.475,42.581 
															"/>
						</g>
					</g>
					<g>
						<g>
							<polyline fill="#FFFFFF" points="121.022,17.854 106.573,26.96 124.334,41.833 							"/>
						</g>
						<g>
							<polygon fill="#67B760" points="123.947,42.294 105.553,26.892 120.701,17.345 121.344,18.364 107.594,27.029 124.72,41.372 
															"/>
						</g>
					</g>
					<g>
						<polygon fill="#67B760" points="144.813,41.081 126.796,26.034 142.006,16.183 142.66,17.194 128.821,26.157 145.584,40.157 
													"/>
					</g>
					<g>
						<polygon fill="#67B760" points="166.33,40.179 148.043,24.926 161.196,16.409 161.852,17.419 150.068,25.049 167.102,39.254 
													"/>
					</g>
					<g>
						<polygon fill="#FFFFFF" points="45.102,21.58 54.734,38.061 58.146,38.061 58.146,29.833 						"/>
					</g>
					<g>
						<g>
							<polygon fill="#FFFFFF" points="58.347,29.829 45.428,21.608 159.932,15.719 172.135,23.564 172.135,39.224 58.347,45.777 
															"/>
						</g>
						<g>
							<g>
								<path fill="#C5CACE" d="M159.769,16.331l11.765,7.563v14.762L58.948,45.139v-14.98v-0.661l-0.557-0.354l-11.049-7.031
									L159.769,16.331 M160.094,15.108L44.499,21.053v0.677l13.245,8.429v16.255l114.992-6.623V23.236L160.094,15.108
									L160.094,15.108z"/>
							</g>
						</g>
					</g>
					<g>
						<g>
							<line fill="#FFFFFF" x1="57.744" y1="30.159" x2="172.234" y2="23.537"/>
						</g>
						<g>
							
								<rect x="114.388" y="-30.493" transform="matrix(0.0576 0.9983 -0.9983 0.0576 135.1719 -89.497)" fill="#C5CACE" width="1.204" height="114.682"/>
						</g>
					</g>
					<g>
						<line fill="#FFFFFF" x1="45.076" y1="20.978" x2="45.076" y2="38.438"/>
						<rect x="44.475" y="20.978" fill="#C5CACE" width="1.204" height="17.459"/>
					</g>
					<g>
						<line fill="#FFFFFF" x1="44.649" y1="37.835" x2="58.371" y2="37.835"/>
						<rect x="44.649" y="37.233" fill="#C5CACE" width="13.722" height="1.204"/>
					</g>
				</g>
				<g>
					<g>
						<polygon fill="#67B760" points="81.918,44.645 63.941,29.672 82.206,19.251 82.802,20.297 66.046,29.858 82.688,43.719 						
							"/>
					</g>
					<g>
						<polygon fill="#67B760" points="102.711,43.513 84.508,28.608 99.852,18.222 100.526,19.219 86.521,28.7 103.475,42.581 
													"/>
					</g>
					<g>
						<polygon fill="#67B760" points="123.947,42.294 105.553,26.892 120.701,17.345 121.344,18.364 107.594,27.029 124.72,41.372 
													"/>
					</g>
					<g>
						<polygon fill="#67B760" points="144.813,41.081 126.796,26.034 142.006,16.183 142.66,17.194 128.821,26.157 145.584,40.157 
													"/>
					</g>
					<g>
						<polygon fill="#67B760" points="166.33,40.179 148.043,24.926 161.196,16.409 161.852,17.419 150.068,25.049 167.102,39.254 
													"/>
					</g>
					<g>
						<polygon fill="#E9E9E9" points="45.102,21.58 54.734,38.061 58.146,38.061 58.146,29.833 						"/>
					</g>
					<g>
						<g>
							<path fill="#C5CACE" d="M159.769,16.331l11.765,7.563v14.762L58.948,45.139v-14.98v-0.661l-0.557-0.354l-11.049-7.031
								L159.769,16.331 M160.094,15.108L44.499,21.053v0.677l13.245,8.429v16.255l114.992-6.623V23.236L160.094,15.108
								L160.094,15.108z"/>
						</g>
					</g>
					<g>
						<g>
							<line fill="#FFFFFF" x1="57.744" y1="30.159" x2="172.234" y2="23.537"/>
						</g>
						<g>
							
								<rect x="114.388" y="-30.493" transform="matrix(0.0576 0.9983 -0.9983 0.0576 135.1719 -89.497)" fill="#C5CACE" width="1.204" height="114.682"/>
						</g>
					</g>
					<g>
						<rect x="44.475" y="20.978" fill="#C5CACE" width="1.204" height="17.459"/>
					</g>
					<g>
						<rect x="44.649" y="37.233" fill="#C5CACE" width="13.722" height="1.204"/>
					</g>
				</g>
			</g>
		</g>
		<g>
			<g>
				<g>
					<polygon fill="#DCE8E6" points="131.043,143.581 124.722,134.851 143.285,73.441 150.31,80.365 					"/>
				</g>
				<g>
					<polygon fill="#EEF1F6" points="192.152,131.238 131.043,143.581 150.812,80.967 214.127,65.313 					"/>
				</g>
				<g>
					<g>
						<path fill="#3487C9" d="M207.156,58.377l5.977,6.896l-20.239,64.478l-61.352,11.925l-5.469-7.563l18.512-60.02L207.156,58.377
							 M208.006,55.681l-65.322,16.406l-19.266,62.463l7.074,9.783l64.27-12.493l21.071-67.129L208.006,55.681L208.006,55.681z"/>
					</g>
				</g>
				<g>
					
						<rect x="181.667" y="39.765" transform="matrix(0.2458 0.9693 -0.9693 0.2458 208.5301 -122.3249)" fill="#3487C9" width="2.408" height="66.148"/>
				</g>
				<g>
					
						<rect x="139.674" y="79.407" transform="matrix(0.9519 0.3064 -0.3064 0.9519 41.0406 -37.7882)" fill="#3487C9" width="2.408" height="64.83"/>
				</g>
				<g>
					
						<rect x="141.727" y="76" transform="matrix(0.7071 0.7071 -0.7071 0.7071 97.6608 -81.3664)" fill="#3487C9" width="10.643" height="2.408"/>
				</g>
				<g>
					<polygon fill="#FFFBFC" points="179.409,83.676 153.671,106.404 234.798,177.295 241.42,170.974 					"/>
				</g>
				<g>
					<path fill="#F1F2F4" d="M156.079,104.748l80.073,70.29l-3.01,5.569l-87.75-50.723
						C145.393,129.884,141.63,117.843,156.079,104.748z"/>
				</g>
				<g>
					<path fill="#F1F2F4" d="M177.302,85.482c0,0,17.46-10.686,21.975-5.117l45.605,89.104l-5.719,2.258L177.302,85.482z"/>
				</g>
				<g>
					<path fill="#C5CCD2" d="M209.768,166.636l-2.318-0.656c2.255-7.967,13.667-21.106,24.21-22.242l0.257,2.395
						C222.609,147.135,211.855,159.256,209.768,166.636z"/>
				</g>
				<g>
					<path fill="#C5CCD2" d="M187.049,153.207l-2.336-0.589c4.477-17.752,23.695-31.414,34.443-32.66l0.277,2.393
						C209.344,123.52,191.28,136.423,187.049,153.207z"/>
				</g>
				<g>
					<path fill="#C5CCD2" d="M166.605,140.722l-2.389-0.303c1.202-9.48,7.585-20.031,17.51-28.946
						c9.184-8.249,19.595-13.42,27.171-13.498l0.024,2.409C195.242,100.521,169.17,120.506,166.605,140.722z"/>
				</g>
				<g>
					<g>
						<path fill="#3487C9" d="M194.38,79.492c2.429,0,3.384,0.862,3.597,1.094l45.245,88.794l-9.874,9.874l-86.229-49.76
							c-3.352-2.301-0.386-10.24,4.06-17.117c8.104-12.537,23.321-25.098,33.352-29.999
							C188.449,80.462,191.764,79.492,194.38,79.492 M194.38,77.083c-2.513,0-6.039,0.752-10.907,3.131
							c-11.137,5.441-26.34,18.513-34.317,30.855c-3.983,6.163-9.03,16.707-3.311,20.47l87.899,50.723l12.418-12.417l-46.133-90.534
							C200.029,79.311,198.704,77.083,194.38,77.083L194.38,77.083z"/>
					</g>
				</g>
				<g>
					<g>
						<path fill="#FFFFFF" d="M234.854,181.217c-0.376,0-0.884-0.065-1.164-0.374c-0.412-0.451-0.357-1.486,0.141-2.703
							c0.631-1.541,1.916-3.266,3.524-4.73c2.223-2.026,4.805-3.335,6.579-3.335c0.376,0,0.883,0.065,1.164,0.373
							c0.831,0.913-0.184,4.263-3.666,7.435C239.21,179.908,236.628,181.217,234.854,181.217L234.854,181.217z"/>
					</g>
					<g>
						<g>
							<path fill="#3487C9" d="M243.935,171.278c0.106,0,0.186,0.008,0.242,0.017c0.073,0.747-0.766,3.156-3.556,5.698
								c-2.289,2.086-4.546,3.021-5.767,3.021c-0.107,0-0.187-0.008-0.242-0.018c-0.073-0.746,0.766-3.156,3.554-5.697
								C240.455,172.212,242.713,171.278,243.935,171.278 M243.935,168.87c-2.012,0-4.845,1.329-7.391,3.649
								c-3.642,3.318-5.317,7.409-3.744,9.136c0.474,0.52,1.188,0.767,2.055,0.767c2.012,0,4.843-1.329,7.389-3.648
								c3.644-3.318,5.319-7.409,3.745-9.137C245.515,169.117,244.801,168.87,243.935,168.87L243.935,168.87z"/>
						</g>
					</g>
				</g>
			</g>
			<g>
				<g>
					<path fill="#E8E8E8" d="M84.44,130.588l-30.103-12.844c0,0-6.823-3.612-5.218,6.823l6.824,35.32l24.082-10.837L84.44,130.588z"
						/>
				</g>
				<g>
					<polygon fill="#EDF2F6" points="110.637,193.894 54.338,161.996 113.038,128.582 168.126,163.5 					"/>
				</g>
				<g>
					<polygon fill="#E2E5F6" points="53.134,173.133 110.028,205.644 110.028,194.206 53.134,161.092 					"/>
				</g>
				<g>
					<g>
						<g>
							<path fill="#3487C9" d="M113.191,130.72l54.439,32.703v8.854l-56.985,31.382l-56.2-31.372v-9.401L113.191,130.72
								 M113.246,127.944l-61.209,33.514v12.243l58.6,32.712l59.402-32.712V162.06L113.246,127.944L113.246,127.944z"/>
						</g>
					</g>
					<g>
						
							<rect x="48.926" y="176.986" transform="matrix(0.8749 0.4844 -0.4844 0.8749 96.5441 -17.3301)" fill="#3487C9" width="65.775" height="2.408"/>
					</g>
					<g>
						
							<rect x="138.57" y="145.291" transform="matrix(0.4736 0.8807 -0.8807 0.4736 230.7223 -29.1814)" fill="#3487C9" width="2.408" height="66.275"/>
					</g>
					<g>
						<rect x="109.433" y="193.894" fill="#3487C9" width="2.408" height="11.314"/>
					</g>
				</g>
				<g>
					<path fill="#FFFFFF" d="M107.72,66.771h8.429l17.26,105.561c0,0-28.097,3.21-33.314,2.006
						C94.877,173.133,107.72,66.771,107.72,66.771z"/>
				</g>
				<g>
					<path fill="#F1F2F4" d="M110.637,68.064l-7.225,105.961c0,0-25.688-2.006-28.296-11.84l29.1-97.332L110.637,68.064z"/>
				</g>
				<g>
					<path fill="#F1F2F4" d="M114.45,67.664l4.615-2.208l29.501,96.931c0,0-3.01,8.83-18.062,10.235L114.45,67.664z"/>
				</g>
				<g>
					<polygon fill="#C6D8E2" points="75.518,165.196 62.875,158.373 79.531,149.142 					"/>
				</g>
				<g>
					<g>
						<path fill="#C5CCD2" d="M112.638,97.332c-6.939,0-13.728-1.834-17.349-4.949l1.571-1.826
							c5.915,5.09,22.031,6.316,30.406,0.596l1.358,1.989C124.376,96.043,118.453,97.332,112.638,97.332z"/>
					</g>
					<g>
						<path fill="#C5CCD2" d="M112.439,125.044c-9.679,0-19.438-2.279-24.208-6.841l1.665-1.74
							c3.969,3.796,12.521,6.139,22.371,6.139c0.111,0,0.221,0,0.333,0c9.75-0.052,18.329-2.448,21.854-6.104l1.732,1.671
							C131.77,122.751,122.146,125.044,112.439,125.044z"/>
					</g>
					<g>
						<path fill="#C5CCD2" d="M112.555,150.921c-0.9,0-1.792-0.014-2.671-0.04c-10.945-0.333-25.076-2.953-28.875-9.245l2.062-1.245
							c2.632,4.358,13.688,7.682,26.887,8.083c15.097,0.454,27.341-2.856,31.196-8.445l1.983,1.367
							C138.271,148.448,124.618,150.921,112.555,150.921z"/>
					</g>
				</g>
				<g>
					<path fill="#3487C9" d="M119.175,66.86l28.269,95.388c-0.403,1.264-2.748,6.112-15.4,9.258
						c-5.367,1.335-11.495,2.04-17.722,2.04c-3.831,0-7.553-0.266-11.063-0.788c-21.283-3.17-25.597-9.129-26.371-10.673
						l27.878-95.225H119.175 M120.973,64.452h-18.012l-28.598,97.683c0,0,1.09,8.916,28.54,13.005
						c3.632,0.541,7.503,0.814,11.418,0.814c6.251,0,12.613-0.696,18.303-2.111c16.968-4.219,17.297-11.708,17.297-11.708
						L120.973,64.452L120.973,64.452z"/>
				</g>
				<g>
					<g>
						<path fill="#FFFFFF" d="M111.973,67.143c-4.766,0-7.808-1.789-7.808-3.02c0-1.231,3.042-3.019,7.808-3.019
							s7.808,1.788,7.808,3.019C119.78,65.354,116.738,67.143,111.973,67.143z"/>
					</g>
					<g>
						<path fill="#3487C9" d="M111.973,62.308c3.805,0,6.083,1.211,6.553,1.815c-0.469,0.604-2.748,1.815-6.553,1.815
							c-3.803,0-6.083-1.211-6.552-1.815C105.89,63.519,108.17,62.308,111.973,62.308 M111.973,59.899
							c-4.977,0-9.012,1.891-9.012,4.223c0,2.333,4.035,4.224,9.012,4.224c4.978,0,9.012-1.891,9.012-4.224
							C120.984,61.791,116.95,59.899,111.973,59.899L111.973,59.899z"/>
					</g>
				</g>
			</g>
		</g>
	</g>
	<g>
		<polygon fill="#DEE7EE" points="25.865,114.523 24.312,109.74 28.38,106.783 32.449,109.74 30.895,114.523 		"/>
	</g>
	<g>
		<polygon fill="#DEE7EE" points="1.39,76.895 0,74.487 1.39,72.079 4.17,72.079 5.561,74.487 4.17,76.895 		"/>
	</g>
	<g>
		<polygon fill="#DEE7EE" points="15.156,127.467 14.288,125.962 15.156,124.458 16.894,124.458 17.763,125.962 16.894,127.467 		
			"/>
	</g>
	<g>
		<polygon fill="#DEE7EE" points="226.155,86.076 223.729,86.065 222.523,83.958 223.747,81.862 226.174,81.873 227.378,83.98 		"/>
	</g>
	<g>
		<polygon fill="#DEE7EE" points="208.094,36.093 209.159,38.252 211.541,38.598 209.817,40.278 210.225,42.651 208.094,41.53 
			205.963,42.651 206.369,40.278 204.646,38.598 207.028,38.252 		"/>
	</g>
	<g>
		<polygon fill="#DEE7EE" points="244.518,116.435 245.594,118.615 248,118.965 246.259,120.662 246.67,123.057 244.518,121.926 
			242.366,123.057 242.777,120.662 241.036,118.965 243.441,118.615 		"/>
	</g>
	<g>
		<polygon fill="#DEE7EE" points="161.735,0 162.616,1.784 164.584,2.07 163.16,3.458 163.496,5.418 161.735,4.493 159.975,5.418 
			160.311,3.458 158.887,2.07 160.854,1.784 		"/>
	</g>
</g>
</svg>
