<?xml version="1.0" encoding="utf-8"?>
<!-- Generator: Adobe Illustrator 15.0.0, SVG Export Plug-In . SVG Version: 6.00 Build 0)  -->
<!DOCTYPE svg PUBLIC "-//W3C//DTD SVG 1.1//EN" "http://www.w3.org/Graphics/SVG/1.1/DTD/svg11.dtd">
<svg version="1.1" id="Layer_1" xmlns="http://www.w3.org/2000/svg" xmlns:xlink="http://www.w3.org/1999/xlink" x="0px" y="0px"
	 width="248px" height="206.414px" viewBox="0 0 248 206.414" enable-background="new 0 0 248 206.414" xml:space="preserve">
<g>
	<g>
		
			<linearGradient id="SVGID_1_" gradientUnits="userSpaceOnUse" x1="75.2729" y1="-22.2129" x2="122.8817" y2="-52.2496" gradientTransform="matrix(1 0 0 -1 -56 61.4131)">
			<stop  offset="0" style="stop-color:#FFFFFF"/>
			<stop  offset="1" style="stop-color:#EBEBEB"/>
		</linearGradient>
		<polygon fill="url(#SVGID_1_)" points="28.155,82.438 66.611,107.65 66.611,118.938 10.319,84.771 		"/>
		<g>
			<polygon fill="#DDE8EC" stroke="#C5CACE" stroke-width="2" stroke-miterlimit="10" points="127.438,83.666 54.891,87.278 
				57.299,77.645 129.245,73.431 			"/>
			<polygon fill="#DDE8EC" points="39.238,99.018 53.386,99.018 68.136,37.91 52.784,37.91 			"/>
			<polygon fill="#C8D9E1" points="46.462,66.808 53.386,98.416 39.539,98.416 			"/>
			<polygon fill="#C7D8E0" points="49.473,52.961 63.621,46.037 57.901,46.037 57.901,38.21 52.483,38.21 			"/>
			<polygon fill="#DDE8EC" points="124.428,92.998 139.781,92.998 151.221,40.92 135.867,40.92 			"/>
			<path fill="#C8D9E1" d="M136.168,41.823l13.848-0.903l-0.603,7.827c0,0-17.459,7.526-16.558,6.623
				C133.76,54.466,136.168,41.823,136.168,41.823z"/>
			<polygon fill="none" stroke="#C5CACE" stroke-width="2" stroke-miterlimit="10" points="39.238,99.018 53.386,99.018 
				68.136,37.91 52.784,37.91 			"/>
			<polygon fill="none" stroke="#C5CACE" stroke-width="2" stroke-miterlimit="10" points="124.428,92.998 139.781,92.396 
				151.221,40.92 135.867,40.92 			"/>
			<polygon fill="#F1F2F4" stroke="#C5CACE" stroke-width="2" stroke-miterlimit="10" points="164.445,68.015 149.695,71.627 
				149.714,39.716 164.465,39.716 			"/>
			<polygon fill="#F1F2F4" stroke="#C5CACE" stroke-width="2" stroke-miterlimit="10" points="139.479,105.641 80.177,109.253 
				80.177,99.319 139.479,95.707 			"/>
			<polygon fill="#F1F2F4" stroke="#C5CACE" stroke-width="2" stroke-miterlimit="10" points="80.479,118.285 66.932,118.285 
				63.32,45.435 78.672,44.833 			"/>
			<g>
				<g>
					<g>
						<g>
							<polyline fill="#FFFFFF" points="82.504,19.774 64.994,29.765 82.303,44.182 							"/>
						</g>
						<g>
							<polygon fill="#67B760" points="81.918,44.645 63.942,29.672 82.206,19.251 82.803,20.297 66.046,29.858 82.689,43.719 
															"/>
						</g>
					</g>
					<g>
						<g>
							<polyline fill="#FFFFFF" points="100.19,18.72 85.515,28.654 103.093,43.047 							"/>
						</g>
						<g>
							<polygon fill="#67B760" points="102.712,43.513 84.508,28.608 99.852,18.222 100.527,19.219 86.521,28.7 103.474,42.581 
															"/>
						</g>
					</g>
					<g>
						<g>
							<polyline fill="#FFFFFF" points="121.023,17.854 106.574,26.96 124.334,41.833 							"/>
						</g>
						<g>
							<polygon fill="#67B760" points="123.948,42.294 105.554,26.892 120.702,17.345 121.344,18.364 107.594,27.029 
								124.721,41.372 							"/>
						</g>
					</g>
					<g>
						<polygon fill="#67B760" points="144.813,41.081 126.796,26.034 142.006,16.183 142.661,17.194 128.822,26.157 145.585,40.157 
													"/>
					</g>
					<g>
						<polygon fill="#67B760" points="166.331,40.179 148.043,24.926 161.197,16.409 161.852,17.419 150.068,25.049 167.104,39.254 
													"/>
					</g>
					<g>
						<polygon fill="#FFFFFF" points="45.102,21.58 54.735,38.062 58.146,38.062 58.146,29.833 						"/>
					</g>
					<g>
						<g>
							<polygon fill="#FFFFFF" points="58.347,29.829 45.429,21.608 159.932,15.719 172.135,23.564 172.135,39.224 58.347,45.777 
															"/>
						</g>
						<g>
							<g>
								<path fill="#C5CACE" d="M159.77,16.33l11.764,7.563v14.762L58.949,45.139v-14.98v-0.661l-0.558-0.354l-11.048-7.031
									L159.77,16.33 M160.094,15.108L44.5,21.053v0.677l13.246,8.429v16.255l114.992-6.623V23.236L160.094,15.108L160.094,15.108z
									"/>
							</g>
						</g>
					</g>
					<g>
						<g>
							<line fill="none" x1="57.745" y1="30.159" x2="172.234" y2="23.537"/>
						</g>
						<g>
							
								<rect x="114.391" y="-30.495" transform="matrix(-0.0576 -0.9983 0.9983 -0.0576 94.8161 143.1915)" fill="#C5CACE" width="1.204" height="114.677"/>
						</g>
					</g>
					<g>
						<line fill="none" x1="45.077" y1="20.978" x2="45.077" y2="38.438"/>
						<rect x="44.475" y="20.978" fill="#C5CACE" width="1.204" height="17.459"/>
					</g>
					<g>
						<line fill="none" x1="44.65" y1="37.835" x2="58.372" y2="37.835"/>
						<rect x="44.65" y="37.233" fill="#C5CACE" width="13.721" height="1.204"/>
					</g>
				</g>
				<g>
					<g>
						<polygon fill="#67B760" points="81.918,44.645 63.942,29.672 82.206,19.251 82.803,20.297 66.046,29.858 82.689,43.719 						
							"/>
					</g>
					<g>
						<polygon fill="#67B760" points="102.712,43.513 84.508,28.608 99.852,18.222 100.527,19.219 86.521,28.7 103.474,42.581 
													"/>
					</g>
					<g>
						<polygon fill="#67B760" points="123.948,42.294 105.554,26.892 120.702,17.345 121.344,18.364 107.594,27.029 124.721,41.372 
													"/>
					</g>
					<g>
						<polygon fill="#67B760" points="144.813,41.081 126.796,26.034 142.006,16.183 142.661,17.194 128.822,26.157 145.585,40.157 
													"/>
					</g>
					<g>
						<polygon fill="#67B760" points="166.331,40.179 148.043,24.926 161.197,16.409 161.852,17.419 150.068,25.049 167.104,39.254 
													"/>
					</g>
					<g>
						<polygon fill="#E9E9E9" points="45.102,21.58 54.735,38.062 58.146,38.062 58.146,29.833 						"/>
					</g>
					<g>
						<g>
							<path fill="#C5CACE" d="M159.77,16.33l11.764,7.563v14.762L58.949,45.139v-14.98v-0.661l-0.558-0.354l-11.048-7.031
								L159.77,16.33 M160.094,15.108L44.5,21.053v0.677l13.246,8.429v16.255l114.992-6.623V23.236L160.094,15.108L160.094,15.108z"
								/>
						</g>
					</g>
					<g>
						<g>
							<line fill="none" x1="57.745" y1="30.159" x2="172.234" y2="23.537"/>
						</g>
						<g>
							
								<rect x="114.391" y="-30.495" transform="matrix(-0.0576 -0.9983 0.9983 -0.0576 94.8161 143.1915)" fill="#C5CACE" width="1.204" height="114.677"/>
						</g>
					</g>
					<g>
						<rect x="44.475" y="20.978" fill="#C5CACE" width="1.204" height="17.459"/>
					</g>
					<g>
						<rect x="44.65" y="37.233" fill="#C5CACE" width="13.721" height="1.204"/>
					</g>
				</g>
			</g>
		</g>
		<g>
			<g>
				<g>
					<polygon fill="#DCE8E6" points="131.044,143.582 124.723,134.851 143.286,73.441 150.311,80.365 					"/>
				</g>
				<g>
					<polygon fill="#EEF1F6" points="192.152,131.238 131.044,143.582 150.813,80.967 214.127,65.313 					"/>
				</g>
				<g>
					<g>
						<path fill="#3487C9" d="M207.157,58.377l5.976,6.896l-20.238,64.479l-61.353,11.924l-5.47-7.563l18.513-60.02L207.157,58.377
							 M208.007,55.681l-65.323,16.406l-19.266,62.463l7.074,9.783l64.27-12.494l21.072-67.128L208.007,55.681L208.007,55.681z"/>
					</g>
				</g>
				<g>
					
						<rect x="181.671" y="39.772" transform="matrix(-0.2458 -0.9693 0.9693 -0.2458 157.2108 268.0148)" fill="#3487C9" width="2.408" height="66.148"/>
				</g>
				<g>
					
						<rect x="139.666" y="79.411" transform="matrix(-0.9519 -0.3063 0.3063 -0.9519 240.7183 261.4254)" fill="#3487C9" width="2.409" height="64.829"/>
				</g>
				<g>
					
						<rect x="141.726" y="75.998" transform="matrix(-0.7071 -0.7071 0.7071 -0.7071 196.4311 235.7724)" fill="#3487C9" width="10.643" height="2.408"/>
				</g>
				<g>
					<polygon fill="#FFFBFC" points="179.409,83.676 153.671,106.404 234.798,177.294 241.421,170.974 					"/>
				</g>
				<g>
					<path fill="#F1F2F4" d="M156.08,104.748l80.072,70.291l-3.01,5.568l-87.75-50.723
						C145.393,129.884,141.63,117.843,156.08,104.748z"/>
				</g>
				<g>
					<path fill="#F1F2F4" d="M177.302,85.482c0,0,17.46-10.687,21.976-5.118l45.605,89.104l-5.72,2.258L177.302,85.482z"/>
				</g>
				<g>
					<path fill="#C5CCD2" d="M209.768,166.636l-2.316-0.656c2.255-7.966,13.666-21.105,24.209-22.242l0.258,2.395
						C222.609,147.134,211.855,159.255,209.768,166.636z"/>
				</g>
				<g>
					<path fill="#C5CCD2" d="M187.049,153.207l-2.335-0.588c4.478-17.752,23.695-31.414,34.443-32.66l0.276,2.393
						C209.344,123.52,191.281,136.423,187.049,153.207z"/>
				</g>
				<g>
					<path fill="#C5CCD2" d="M166.605,140.722l-2.389-0.303c1.203-9.48,7.586-20.031,17.512-28.946
						c9.183-8.249,19.594-13.42,27.17-13.498l0.023,2.408C195.243,100.521,169.17,120.505,166.605,140.722z"/>
				</g>
				<g>
					<g>
						<path fill="#3487C9" d="M194.38,79.492c2.429,0,3.384,0.862,3.597,1.094l45.246,88.794l-9.875,9.873l-86.229-49.76
							c-3.351-2.301-0.386-10.24,4.062-17.117c8.103-12.537,23.32-25.098,33.352-29.999C188.45,80.462,191.764,79.492,194.38,79.492
							 M194.38,77.083c-2.513,0-6.039,0.752-10.907,3.131c-11.137,5.441-26.34,18.513-34.316,30.855
							c-3.984,6.163-9.031,16.707-3.313,20.47l87.9,50.724l12.417-12.417l-46.132-90.534
							C200.029,79.311,198.705,77.083,194.38,77.083L194.38,77.083z"/>
					</g>
				</g>
				<g>
					<g>
						<path fill="#FFFFFF" d="M234.855,181.216c-0.377,0-0.883-0.064-1.166-0.373c-0.412-0.452-0.356-1.487,0.142-2.704
							c0.631-1.542,1.916-3.267,3.524-4.731c2.223-2.025,4.805-3.334,6.58-3.334c0.375,0,0.883,0.064,1.164,0.372
							c0.83,0.913-0.185,4.263-3.666,7.435C239.21,179.908,236.628,181.216,234.855,181.216L234.855,181.216z"/>
					</g>
					<g>
						<g>
							<path fill="#3487C9" d="M243.936,171.278c0.105,0,0.186,0.009,0.241,0.017c0.073,0.748-0.766,3.156-3.555,5.699
								c-2.29,2.086-4.546,3.021-5.767,3.021c-0.107,0-0.188-0.009-0.244-0.017c-0.072-0.746,0.767-3.156,3.555-5.697
								C240.456,172.212,242.713,171.278,243.936,171.278 M243.936,168.871c-2.013,0-4.846,1.328-7.392,3.648
								c-3.642,3.318-5.317,7.408-3.744,9.135c0.474,0.52,1.188,0.768,2.056,0.768c2.012,0,4.844-1.33,7.389-3.649
								c3.643-3.317,5.318-7.409,3.744-9.136C245.516,169.117,244.801,168.871,243.936,168.871L243.936,168.871z"/>
						</g>
					</g>
				</g>
			</g>
			<g>
				<g>
					<path fill="#E8E8E8" d="M84.441,130.589l-30.103-12.844c0,0-6.824-3.613-5.217,6.822l6.824,35.32l24.082-10.838L84.441,130.589
						z"/>
				</g>
				<g>
					<polygon fill="#EDF2F6" points="110.638,193.894 54.338,161.996 113.039,128.582 168.126,163.5 					"/>
				</g>
				<g>
					<polygon fill="#E2E5F6" points="53.134,173.132 110.028,205.644 110.028,194.207 53.134,161.091 					"/>
				</g>
				<g>
					<g>
						<g>
							<path fill="#3487C9" d="M113.191,130.72l54.44,32.703v8.854l-56.986,31.381l-56.2-31.373v-9.4L113.191,130.72
								 M113.247,127.944l-61.209,33.515v12.242l58.601,32.711l59.401-32.711V162.06L113.247,127.944L113.247,127.944z"/>
						</g>
					</g>
					<g>
						
							<rect x="48.937" y="176.986" transform="matrix(-0.8749 -0.4843 0.4843 -0.8749 67.1164 373.7181)" fill="#3487C9" width="65.775" height="2.41"/>
					</g>
					<g>
						
							<rect x="138.574" y="145.285" transform="matrix(-0.4735 -0.8808 0.8808 -0.4735 48.8029 386.0161)" fill="#3487C9" width="2.407" height="66.272"/>
					</g>
					<g>
						<rect x="109.434" y="193.894" fill="#3487C9" width="2.408" height="11.314"/>
					</g>
				</g>
				<g>
					<path fill="#FFFFFF" d="M107.72,66.771h8.429l17.26,105.561c0,0-28.097,3.211-33.314,2.006
						C94.877,173.132,107.72,66.771,107.72,66.771z"/>
				</g>
				<g>
					<path fill="#F1F2F4" d="M110.638,68.064l-7.225,105.961c0,0-25.688-2.006-28.297-11.84l29.1-97.332L110.638,68.064z"/>
				</g>
				<g>
					<path fill="#F1F2F4" d="M114.451,67.664l4.616-2.208l29.5,96.931c0,0-3.01,8.829-18.062,10.235L114.451,67.664z"/>
				</g>
				<g>
					<polygon fill="#C6D8E2" points="75.519,165.196 62.875,158.373 79.532,149.142 					"/>
				</g>
				<g>
					<g>
						<path fill="#C5CCD2" d="M112.638,97.332c-6.939,0-13.728-1.833-17.348-4.949l1.571-1.826c5.915,5.09,22.03,6.315,30.407,0.596
							l1.358,1.989C124.376,96.043,118.454,97.332,112.638,97.332z"/>
					</g>
					<g>
						<path fill="#C5CCD2" d="M112.439,125.044c-9.678,0-19.438-2.279-24.207-6.842l1.665-1.74
							c4.014,3.84,12.732,6.197,22.704,6.139c9.751-0.053,18.329-2.448,21.854-6.104l1.732,1.67
							C131.77,122.751,122.146,125.044,112.439,125.044z"/>
					</g>
					<g>
						<path fill="#C5CCD2" d="M112.555,150.921c-0.9,0-1.792-0.014-2.67-0.041c-10.946-0.332-25.077-2.952-28.875-9.244l2.062-1.245
							c2.631,4.358,13.688,7.683,26.887,8.083c15.088,0.453,27.341-2.855,31.195-8.445l1.982,1.367
							C138.271,148.449,124.618,150.921,112.555,150.921z"/>
					</g>
				</g>
				<g>
					<path fill="#3487C9" d="M119.176,66.86l28.268,95.388c-0.402,1.265-2.746,6.112-15.399,9.26
						c-5.366,1.334-11.495,2.039-17.721,2.039c-3.831,0-7.553-0.264-11.063-0.787c-21.282-3.17-25.597-9.129-26.371-10.674
						l27.878-95.225L119.176,66.86 M120.974,64.452h-18.012l-28.598,97.682c0,0,1.09,8.916,28.54,13.006
						c3.632,0.541,7.503,0.814,11.418,0.814c6.251,0,12.614-0.697,18.302-2.111c16.968-4.219,17.297-11.709,17.297-11.709
						L120.974,64.452L120.974,64.452z"/>
				</g>
				<g>
					<g>
						<path fill="#FFFFFF" d="M111.973,67.143c-4.766,0-7.808-1.789-7.808-3.02s3.042-3.019,7.808-3.019
							c4.766,0,7.808,1.788,7.808,3.019S116.739,67.143,111.973,67.143z"/>
					</g>
					<g>
						<path fill="#3487C9" d="M111.973,62.308c3.804,0,6.083,1.211,6.552,1.815c-0.469,0.604-2.748,1.815-6.552,1.815
							c-3.803,0-6.083-1.211-6.552-1.815C105.891,63.519,108.17,62.308,111.973,62.308 M111.973,59.899
							c-4.976,0-9.012,1.891-9.012,4.223c0,2.333,4.036,4.224,9.012,4.224c4.978,0,9.012-1.891,9.012-4.224
							C120.985,61.791,116.951,59.899,111.973,59.899L111.973,59.899z"/>
					</g>
				</g>
			</g>
		</g>
	</g>
	<polygon fill="#DEE7EE" points="25.866,114.523 24.312,109.74 28.381,106.783 32.449,109.74 30.896,114.523 	"/>
	<polygon fill="#DEE7EE" points="1.391,76.895 0,74.487 1.391,72.079 4.171,72.079 5.562,74.487 4.171,76.895 	"/>
	<polygon fill="#DEE7EE" points="15.157,127.468 14.288,125.962 15.157,124.458 16.894,124.458 17.764,125.962 16.894,127.468 	"/>
	<polygon fill="#DEE7EE" points="226.156,86.076 223.729,86.065 222.523,83.958 223.748,81.862 226.174,81.873 227.378,83.98 	"/>
	<polygon fill="#DEE7EE" points="208.094,36.093 209.159,38.252 211.542,38.598 209.818,40.278 210.225,42.651 208.094,41.53 
		205.963,42.651 206.37,40.278 204.646,38.598 207.027,38.252 	"/>
	<polygon fill="#DEE7EE" points="244.518,116.435 245.594,118.615 248,118.964 246.259,120.662 246.67,123.058 244.518,121.925 
		242.366,123.058 242.777,120.662 241.037,118.964 243.441,118.615 	"/>
	<polygon fill="#DEE7EE" points="161.736,0 162.616,1.784 164.584,2.07 163.16,3.458 163.497,5.418 161.736,4.493 159.975,5.418 
		160.311,3.458 158.887,2.07 160.855,1.784 	"/>
</g>
</svg>
